<mxfile host="app.diagrams.net" modified="2022-07-31T13:13:43.023Z" agent="5.0 (Windows NT 6.1; WOW64) AppleWebKit/537.36 (KHTML, like Gecko) Chrome/86.0.4240.198 Safari/537.36" etag="pMMxWiP5m8oZKqkFzmbY" version="20.2.1" type="github">
  <diagram id="b89nUpRcn7hkd2eYOf62" name="第 1 页">
    <mxGraphModel dx="1929" dy="1587" grid="1" gridSize="10" guides="1" tooltips="1" connect="1" arrows="1" fold="1" page="1" pageScale="1" pageWidth="827" pageHeight="1169" math="0" shadow="0">
      <root>
        <mxCell id="0" />
        <mxCell id="1" parent="0" />
        <mxCell id="zLt0-LWcmWagXCRiPH3M-2" value="物理内存" style="swimlane;childLayout=stackLayout;resizeParent=1;resizeParentMax=0;horizontal=1;startSize=20;horizontalStack=0;" parent="1" vertex="1">
          <mxGeometry x="680" y="20" width="210" height="580" as="geometry">
            <mxRectangle x="170" y="10" width="70" height="30" as="alternateBounds" />
          </mxGeometry>
        </mxCell>
        <mxCell id="zLt0-LWcmWagXCRiPH3M-17" value="页目录表" style="swimlane;startSize=20;horizontal=0;fontSize=16;" parent="zLt0-LWcmWagXCRiPH3M-2" vertex="1">
          <mxGeometry y="20" width="210" height="120" as="geometry" />
        </mxCell>
        <mxCell id="zLt0-LWcmWagXCRiPH3M-20" value="页表0的物理基地址0x1000&lt;br&gt;&amp;nbsp;和&amp;nbsp;低12位的标志位" style="text;html=1;align=center;verticalAlign=middle;resizable=0;points=[];autosize=1;strokeColor=none;fillColor=none;fontSize=11;" parent="zLt0-LWcmWagXCRiPH3M-17" vertex="1">
          <mxGeometry x="15" width="170" height="40" as="geometry" />
        </mxCell>
        <mxCell id="zLt0-LWcmWagXCRiPH3M-22" value="页表1的物理基地址0x2000&lt;br&gt;&amp;nbsp;和&amp;nbsp;低12位的标志位" style="text;html=1;align=center;verticalAlign=middle;resizable=0;points=[];autosize=1;strokeColor=none;fillColor=none;fontSize=11;" parent="zLt0-LWcmWagXCRiPH3M-17" vertex="1">
          <mxGeometry x="30" y="40" width="170" height="40" as="geometry" />
        </mxCell>
        <mxCell id="zLt0-LWcmWagXCRiPH3M-23" value="页表2的物理基地址0x2000&lt;br&gt;&amp;nbsp;和&amp;nbsp;低12位的标志位" style="text;html=1;align=center;verticalAlign=middle;resizable=0;points=[];autosize=1;strokeColor=none;fillColor=none;fontSize=11;" parent="zLt0-LWcmWagXCRiPH3M-17" vertex="1">
          <mxGeometry x="15" y="80" width="170" height="40" as="geometry" />
        </mxCell>
        <mxCell id="zLt0-LWcmWagXCRiPH3M-25" value="" style="endArrow=none;html=1;rounded=0;fontSize=11;entryX=0.941;entryY=0;entryDx=0;entryDy=0;entryPerimeter=0;" parent="zLt0-LWcmWagXCRiPH3M-17" target="zLt0-LWcmWagXCRiPH3M-22" edge="1">
          <mxGeometry width="50" height="50" relative="1" as="geometry">
            <mxPoint x="20" y="40" as="sourcePoint" />
            <mxPoint x="70" y="-10" as="targetPoint" />
          </mxGeometry>
        </mxCell>
        <mxCell id="zLt0-LWcmWagXCRiPH3M-27" value="" style="endArrow=none;html=1;rounded=0;fontSize=11;entryX=0.941;entryY=0;entryDx=0;entryDy=0;entryPerimeter=0;" parent="zLt0-LWcmWagXCRiPH3M-17" edge="1">
          <mxGeometry width="50" height="50" relative="1" as="geometry">
            <mxPoint x="20" y="80" as="sourcePoint" />
            <mxPoint x="189.9699999999998" y="80" as="targetPoint" />
          </mxGeometry>
        </mxCell>
        <mxCell id="zLt0-LWcmWagXCRiPH3M-4" value="页表0" style="swimlane;startSize=20;horizontal=0;fontSize=16;" parent="zLt0-LWcmWagXCRiPH3M-2" vertex="1">
          <mxGeometry y="140" width="210" height="80" as="geometry" />
        </mxCell>
        <mxCell id="zLt0-LWcmWagXCRiPH3M-28" value="页目录表的物理基地址&lt;br&gt;&amp;nbsp;和&amp;nbsp;低12位的标志位" style="text;html=1;align=center;verticalAlign=middle;resizable=0;points=[];autosize=1;strokeColor=none;fillColor=none;fontSize=11;" parent="zLt0-LWcmWagXCRiPH3M-4" vertex="1">
          <mxGeometry x="30" width="140" height="40" as="geometry" />
        </mxCell>
        <mxCell id="zLt0-LWcmWagXCRiPH3M-5" value="页表1" style="swimlane;startSize=20;horizontal=0;fontSize=16;" parent="zLt0-LWcmWagXCRiPH3M-2" vertex="1">
          <mxGeometry y="220" width="210" height="60" as="geometry" />
        </mxCell>
        <mxCell id="zLt0-LWcmWagXCRiPH3M-33" value="0x400000开始的内存页&lt;br&gt;物理基地址&amp;nbsp;和&amp;nbsp;低12位的标志位" style="text;html=1;align=center;verticalAlign=middle;resizable=0;points=[];autosize=1;strokeColor=none;fillColor=none;fontSize=11;" parent="zLt0-LWcmWagXCRiPH3M-5" vertex="1">
          <mxGeometry x="10" width="190" height="40" as="geometry" />
        </mxCell>
        <mxCell id="zLt0-LWcmWagXCRiPH3M-7" value="页表2" style="swimlane;startSize=20;horizontal=0;fontSize=16;" parent="zLt0-LWcmWagXCRiPH3M-2" vertex="1">
          <mxGeometry y="280" width="210" height="60" as="geometry" />
        </mxCell>
        <mxCell id="zLt0-LWcmWagXCRiPH3M-34" value="0x800000开始的内存页&lt;br&gt;物理基地址&amp;nbsp;和&amp;nbsp;低12位的标志位" style="text;html=1;align=center;verticalAlign=middle;resizable=0;points=[];autosize=1;strokeColor=none;fillColor=none;fontSize=11;" parent="zLt0-LWcmWagXCRiPH3M-7" vertex="1">
          <mxGeometry x="15" width="190" height="40" as="geometry" />
        </mxCell>
        <mxCell id="zLt0-LWcmWagXCRiPH3M-8" value="页表3" style="swimlane;startSize=20;horizontal=0;fontSize=16;" parent="zLt0-LWcmWagXCRiPH3M-2" vertex="1">
          <mxGeometry y="340" width="210" height="80" as="geometry" />
        </mxCell>
        <mxCell id="zLt0-LWcmWagXCRiPH3M-32" value="最后一个内存页的物理基地址&lt;br&gt;&amp;nbsp;和&amp;nbsp;低12位的标志位" style="text;html=1;align=center;verticalAlign=middle;resizable=0;points=[];autosize=1;strokeColor=none;fillColor=none;fontSize=11;" parent="zLt0-LWcmWagXCRiPH3M-8" vertex="1">
          <mxGeometry x="15" y="40" width="180" height="40" as="geometry" />
        </mxCell>
        <mxCell id="zLt0-LWcmWagXCRiPH3M-35" value="0xC00000开始的内存页&lt;br&gt;物理基地址&amp;nbsp;和&amp;nbsp;低12位的标志位" style="text;html=1;align=center;verticalAlign=middle;resizable=0;points=[];autosize=1;strokeColor=none;fillColor=none;fontSize=11;" parent="zLt0-LWcmWagXCRiPH3M-8" vertex="1">
          <mxGeometry x="15" width="190" height="40" as="geometry" />
        </mxCell>
        <mxCell id="zLt0-LWcmWagXCRiPH3M-9" value="内存页" style="swimlane;startSize=20;horizontal=0;fontSize=16;" parent="zLt0-LWcmWagXCRiPH3M-2" vertex="1">
          <mxGeometry y="420" width="210" height="80" as="geometry" />
        </mxCell>
        <mxCell id="zLt0-LWcmWagXCRiPH3M-10" value="内存页" style="swimlane;startSize=20;horizontal=0;fontSize=16;" parent="zLt0-LWcmWagXCRiPH3M-2" vertex="1">
          <mxGeometry y="500" width="210" height="80" as="geometry" />
        </mxCell>
        <mxCell id="zLt0-LWcmWagXCRiPH3M-19" style="edgeStyle=none;rounded=0;orthogonalLoop=1;jettySize=auto;html=1;fontSize=16;entryX=1;entryY=0.5;entryDx=0;entryDy=0;" parent="1" source="zLt0-LWcmWagXCRiPH3M-17" edge="1">
          <mxGeometry relative="1" as="geometry">
            <mxPoint x="552" y="81.5" as="targetPoint" />
          </mxGeometry>
        </mxCell>
        <mxCell id="zLt0-LWcmWagXCRiPH3M-24" value="页目录项" style="text;html=1;align=center;verticalAlign=middle;resizable=0;points=[];autosize=1;strokeColor=none;fillColor=none;fontSize=11;" parent="1" vertex="1">
          <mxGeometry x="565" y="65" width="70" height="30" as="geometry" />
        </mxCell>
        <mxCell id="zLt0-LWcmWagXCRiPH3M-29" style="edgeStyle=none;rounded=0;orthogonalLoop=1;jettySize=auto;html=1;entryX=-0.03;entryY=1.067;entryDx=0;entryDy=0;entryPerimeter=0;fontSize=11;exitX=0.121;exitY=1.1;exitDx=0;exitDy=0;exitPerimeter=0;" parent="1" source="zLt0-LWcmWagXCRiPH3M-28" target="zLt0-LWcmWagXCRiPH3M-24" edge="1">
          <mxGeometry relative="1" as="geometry" />
        </mxCell>
        <mxCell id="zLt0-LWcmWagXCRiPH3M-30" value="页表项" style="edgeLabel;html=1;align=center;verticalAlign=middle;resizable=0;points=[];fontSize=11;" parent="zLt0-LWcmWagXCRiPH3M-29" vertex="1" connectable="0">
          <mxGeometry x="0.3964" y="-2" relative="1" as="geometry">
            <mxPoint as="offset" />
          </mxGeometry>
        </mxCell>
        <mxCell id="zLt0-LWcmWagXCRiPH3M-37" style="edgeStyle=none;rounded=0;orthogonalLoop=1;jettySize=auto;html=1;fontSize=11;" parent="1" source="zLt0-LWcmWagXCRiPH3M-36" edge="1">
          <mxGeometry relative="1" as="geometry">
            <mxPoint x="680" y="60" as="targetPoint" />
          </mxGeometry>
        </mxCell>
        <mxCell id="zLt0-LWcmWagXCRiPH3M-36" value="CR3寄存器保存的是页目录表的物理基地址" style="shape=process;whiteSpace=wrap;html=1;backgroundOutline=1;fontSize=11;" parent="1" vertex="1">
          <mxGeometry x="370" y="-120" width="120" height="60" as="geometry" />
        </mxCell>
        <mxCell id="3nMa6bamwjgffumMp9xu-1" value="" style="shape=image;verticalLabelPosition=bottom;labelBackgroundColor=default;verticalAlign=top;aspect=fixed;imageAspect=0;image=data:image/png,iVBORw0KGgoAAAANSUhEUgAAAyMAAADVCAYAAABE8C9cAAAgAElEQVR4AeydB1QU19uHwd4l9h6NNXZjL4k9auzd2Huv2Evsxq5YALFiib33DrECYks1MSYxfxM1nxpjYiyAz3cGWHZ2mWWXdYFheTnnntmdcued3/0t8z5z5864IH+igCggCogCooAoIAqIAqKAKCAKJIACLgmwT9mlKCAKiAKigCggCogCooAoIAqIAgiMiAlEAVFAFBAFRAFRQBQQBUQBUSBBFBAYSRDZZaeigCggCogCooAoIAqIAqKAKCAwIh4QBUQBUUAUEAVEAVFAFBAFRIEEUUBgJEFkl52KAqKAKCAKiAKigCggCogCooDAiHhAFBAFRAFRQBQQBUQBUUAUEAUSRAGBkQSRXXYqCogCooAoIAqIAqKAKCAKiAICI+IBUUAUEAVEAVFAFBAFRAFRQBRIEAUERhJEdtmpKCAKiAKigCggCogCooAoIAoIjIgHRAFRQBQQBUQBUUAUEAVEAVEgQRQQGEkQ2WWnooAoIAqIAqKAKCAKiAKigCgQbzBy8uRJli9fLkU0EA+IB8QD4gHxgHhAPCAeEA8kQQ+cO3cuGn3FG4x06dIFFxcXKaKBeEA8IB4QD4gHxAPiAfGAeCAJemD48OEJDyNK78iePXukiAbiAfGAeEA8IB4QD4gHxAPigSTggWnTpoXDpy5g5N69e9GISGaIAqKAKCAKiAKigCggCogCooBzKnDz5k2BEedsWjkqUUAUEAVEAVFAFBAFRAFRQN8KCIzou30kOlFAFBAFRAFRQBQQBUQBUcBpFRAYcdqmlQMTBUQBUUAUEAVEAVFAFBAF9K2AwIi+20eiEwVEAVFAFBAFRAFRQBQQBZxWAYERp21aOTBRQBQQBUQBUUAUEAVEAVFA3woIjOi7fSQ6UUAUEAVEAVFAFBAFRAFRwGkVEBhx2qaVAxMFRAFRQBQQBUQBUUAUEAX0rYDAiL7bR6ITBUQBUUAUEAVEAVFAFBAFnFaBRA8jPsEgRTQQD4gHxAPiAfGAeEA8IB4QD+jXA5ZoSmBEYEZgTjwgHhAPiAfEA+IB8YB4QDwQpx4QGBGDxanB5EqEfq9ESNtI24gHxAPiAfGAeEA8kNAecFoYWR0MUkQD8YB4QDwgHhAPiAfEA+IB8YB+PSAwItAi0CYeEA+IB8QD4gHxgHhAPCAeSBAPCIyI8RLEeHKFQr9XKKRtpG3EA+IB8YB4QDwgHogvDzgvjFyF1VJEA/GAeEA8IB4QD4gHxAPiAfGAbj3gtDCy5ipIEQ3EA+IB8YB4QDwgHhAPiAfEA/r1gMCIQItAm3hAPCAeEA+IB8QD4gHxgHggQTwgMCLGSxDjyRUK/V6hkLaRthEPiAfEA+IB8YB4IL48IDAiMCIwIh4QD4gHxAPiAfGAeEA8IB5IEA84LYysvQpSRAPxgHhAPCAeEA+IB8QD4gHxgH49IDAi0CLQJh4QD4gHxAPiAfGAeEA8IB5IEA84LYysuwZSRAPxgHhAPCAeEA+IB8QD4gHxgH49IDAi0CLQJh4QD4gHxAPiAfGAeEA8IB5IEA8IjIjxEsR4coVCv1copG2kbcQD4gHxgHhAPCAeiC8POC2MrL8GUkQD8YB4QDwgHhAPiAfEA+IB8YB+PSAwItAi0CYeEA+IB8QD4gHxgHhAPCAeSBAPOC2MbLgGui+BvzF6aBcK58lCylTvkL3SYPrtfh4t7nWX/uCzyT1osuhltGW6P8bE0A4So/hKPCAeiAMPWPzfffUxn00exPvv5iBVqgxkKtyUpkvvstaGGCzWGbmtteXm54yY1l93/BANy2bH1eUd3m23m0VBsTivBv7M4I41cUvpgmvmclSfeBNvG47PPD7D9/X+gXRpWgW31K64pMzJu02WMcX/jV2+Xb2kK2ldXHBRl2QFaLDmtV31hcf45RU+rV+CNK4pcau5jJmXY6GVmS7en7cmhTo25XOygjRc+xbxRe5j/ZfHqVOoE4MD7I9vzdETtG1SnWyZ0pIiY2FKtN/E7Iv21veGFZt9qFulOBnTpCF11tKU7XUwdl4z0y+8Pa78x9LNPtTssZfVWstjMe+tfgex2I/B60lx6rwwch026LqE8bn7p3y8/CdWXA5hzcX/MXlCG7Lm6Mmoc4bYw1gyoR7Jw/8ppaHygpc6PyZD3DLVt/ekfaR9xANx64GY/neHsWTOWBrNCGLRhVesOf8rE8a2IWvGRvQ4FhbD//iY6lTa09py8za3sv7VO3Qpm4vSE77G89JdhrUoSsHht1hn03k1lNlDyvFOvXXMPveaNf436PpROeqsehbD8ZnHp/p+7U8G1slO/s5HWXgxhLWXfmFEh5Kkr7OdZUqyZ1NMhvVCmTuqIzVnfY9XcOS84B/pM2oPHrGuK3L7aw8ZVL8EZUdfxOPS3wz7ODcf+YTEMi5DfG9YMnUOvU68sXN7Qz1a03+Y0KUEyVO3Z3Cg1nIb5l29RcfGoxh58BE+V17jffwSXesV5J3mR/GMVTtE7GvdiS007urLZ8eesSbobxauXUbF3O9Qespvdh//uhOevJ8iAjZTNNzFajviivLUW/0ObNDzbWJzom2dFkZ8r4O+SyjT+zak+RehxjivPaRP9ZzU9gkxzlOO4+pDetXIHA4j+j4mvWsu8Yl/xAPigXj0gOb/7peM6NCRXsfDjP/nr96lc8WsVF/y0jjP0jlMs07VMVlbbl6vhfXXbR5NlhILWHA1ou4NZ9ZTKudQJl1R7cu8LsP3qzdp8W4lOhw0HuP63TMpWH8nXoZ1YjO9cpJaGVsw6IJq319upmyGnoyxJR6Tfb1m6oLdLAg21uW9eh0D96vOxSbrG9ez9NtZv28OhWptZEXkdmv9H+IV67gM+wnl89FzGHzR8N1x09WbJ1MwfyHeSdOeIYF21hscTPNqU5iu0m/DmQ2UztKPcXYc8xqPwVSZ+j/WR2kexuKxtUnfZL/130LUNlrHEsbyzxqTtuEu1sS4nta2xnlv9Tt4i/1a8pqzzhcY0ZNZrj2gd61afKr6Bx5hvJcMaegmMKKntpJY3vJEYfxn76z/XOW4pI19r2v97w5j8TIPBu9VJb/XntC3dmmabHxtw+9Kq0611taWq9dVPmutH8b84RXIM+BbY5J49TbtipWj7X4jYFj0+JVj1EjbgeFBqn1d3kulfKOZqkpiLW5v/v/16s90LluYWisfh18tV7bbcGYd5SouZ2EkLNlcV7S6f2XoLD+8zefb/P0NHhPrUGjEbaNWNm+r0idqmxCmjZiLu72wEFWPWd1BN2lXsQbNV6+nUoa3gBGN+jecXkfZ8kuiwDU2bbH+6CE6z/9epd0bPGe0IG/3yzb8FsyO0Sy2NQvak+6tYOQtfwdm8cRGl6S2rtPCyMbrkGjKtRBWn/meMWMGUnfizfAuRdPYjScL0/mJ6BgTU3tIrInntyNtJW2law/Y9r/b98xWatRawOdXbPmfbq1Oa8vN96G1fggTWmeh3NxnKn89Y/BHWai9OkQ1z7yuyO9XLtAgey26n3gTta7SM5I3dffwngx7zmNr966mYv6ilBu4l9lHvmJQn3H03/8qqn576lS2Wbt5I/132nBMFn0WwpROeSk/4zpDOlQhg6sLKfM0ps36J3bG9orxw+cwaNF4yhbNT7rUGclStg+9d/xjZ31Km4Qwb0xLKoz5lnUBu6gcCSP2ambYzvfKc1bsPUHndgPovuP5W8Sn8pFyS17TpnTc/TZtElHf2kgYWWux7VT71VznLX8HmnVa22fSXO60MLLpBiSOEsKYpmlwcclC0V7H8LiiFfdLhjZ0o8rCl4nkmLSOQeYlDj9KO0k7iQcc5wEb/ndff8DowZMYfPi1jf/frdVpbbl5+2qtH4J747RU9niliukVIxukpdqKENU887oM358y4uPMZGu6lXnn/8N7zw4at6xL3rQ9GRdsWCeW0+tP+GzEQOp16ca7GTNRZMCl8N6Mt2urv3Efvz78ir799UScw3OU60mL5bdZFfSM+fO6kS37QCYGxvIYw/OWV4zr8REV++5k1unnrA94wPQJrclWYAQTL9tTH/geWcOHrbaw5CpsCtpFlYztGRpkX11ROgUfo2YqF1wy1aSZ5/9Y75Cc6w0rVs6k+fw7Dqlv3cKInpF1dsf2tr+Dt9TY7rgT334FRvTQ2NdDWHvuZyZP7sx7dXxZcs3cSFonC/N15HvUP0k9tKnEYEPCIp4Vzzq7B6z8777+mGkzvRlz1FYQUfSyUqfV5eaaa9UXwsQ2WSg375nqd/yMwR9mpc4aW2AEfM+coFnl/KR0SUnm8qMYtWEJRfOOY4aSEMf6/2MoC8Z9QqXp9/C9Ab7nLtG2fF6Kj78d/j329UXEsPHcLlq5X2dDrONRH0MIY5umpdCYX4yxXH9Ar0p5aehrm1bR4r8aYqxLie3qj3Qs9174076irWst9mu/M7jnFMb4v4nQ3VEwcgM2Bv+H95Hz9GxSlQ9m3jWN2Vpc0Za/wWuzLz28fnUIiCg6OQJG3vZ3EOv2iqaL2mvO+9lpYWTzDUh85TEDPypJ822hZrG/ZFhkz0jiO6bE2A4Ss/hMPCAecIQHYvjfff0Rn031ZNzxELP/99b2G0Od4ec9a8vN69daP4yFw8uTb9B3bDScS6/9SPtiFcIHpdvjjQ1rBpD5wy2sMtQXm+nVYJoVaMngC8bYNx5bTtF8EXBjTzzKNmuXD6b+ouex1N8YQ8R+Q5nZszDlZj9R1fOKEQ3SU8Mrtm0bUffG8w/wClLv518G18sW/oCDWB+rAh9KD4b5o4JdXEhZ9wvWxKYdLK375RYqvDeRWVfVMcfm8xu8Nqyhh9dv4UAT62O0ENf6yJ4RpdfGvjod/zuwLw5740882zktjGy5CfouoXw+uBEttoQa47zxfwyolY8GG0KM88KPI/Jkseil2Xy9H6PEp28PSvtI+4gH4tYDlv53/8OsGYsZeeR11P/0Tcf3M3yL8bvluCzVaWhLa8sN6xmm2utv3DySLKWXsvR6xHqbz66hVJ4RTLtq2M7aNIw1556yMfwc9oppXYrw/uR7bLbn3Hz1NLUzfUx/f9U+z39B+cz9mGhzPKptw2MIYfaAWtRe/vbn1TWL25Kl2THWGo7txv/oVq4oLXaqzu+GZVanrxjb5gM+XqfywtVrtCpWkmZbzHMD82Oy4fuViNu0hl2xYV2tWK/dpG2NScy4Ztx+s/9GyuUYwhQ722LttvV0XnoHX8P+rt9l1KLAqN+G5d+CMQatdTYsirhNa4OhXjumb/87iDlGrbiT4jyBETvM6RijhDF/RDsae/6PtVfD2Hj5d2bN7E7ewmOZFmhq3k2XrtGmdDre7X2RVXb+2B0Ts2lcUqfoIR4QD4gHLHtA+393GCtXLqbXlmfGZOvKPcZ26UyH3daTV+06jTFYW27eXhbXv36bLmXyUH7yt6y5/CvDmr7He6N+ZJOt58yrZ6mTtTXDzr9gxerRFMjbi7EXjHGaxxHz978Z1zIfOT7ZwBy/l2wM/B/ju1cga/MjrLY1nmjrvWRU05xUdcRFvstnqZcjP9VmfoXPled4rBhE3iLT+Nyu83Uo88cMpqXn93gGhOB74TZj+n5E5mKfMSvYXv2M2/me9KJ0uvr0OP7K6L9o2hjXj9Yu17+jY4ORjD35b/jA+LWngunfvCR5e1xifWzqiVx305kjdJ4SyJqobV+y3HMk1Yd9ZV98hnquP2P2wCqkKjGBqefeAuLe9ndgiEemMban08LIFzdB9yX4Z9z7NCdflvSkSJOL/LUnM/rYK1XcYayYZHjpYWQ3a4qKdNgXqlonERxnYmgLiVE8JR4QDzjMAzH9737J8IbKQ0vMbp1J1YyB52P6fx5Tncp21pab1219/c2nDtG4TDZcXN6hYIfdLLtqXkdM358ydVAd3FIkJ23hjvTY8ezt/BX4A0M/rU22NK64pMpD4ZarmXs5pv1bW/aaz7pXp8Eq9TnX2jaWl6/bvZpaJbLh6pKWrJVH4378tf3HG/wrYwe1p1COzKRMnZWclYcyeP8L++sL9/VLxrTIovJdCgoMvBkOl7HNlTYeOUCL2qXJlDY1qbKW5YO+h/AItqxNTPX7LmpPSvPfgksaKsx6Yvfxbj7pScnIlx5G/M5SUmjYd/bX91a/A/t0iUkzZ1zmtDCy9SuQIhqIB8QD4gHxgHhAPCAeEA+IB/TrAYERgRaBNvGAeEA8IB4QD4gHxAPiAfFAgnjAaWFk21cgRTQQD4gHxAPiAfGAeEA8IB4QD+jXA04LI9u/BimigXhAPCAeEA+IB8QD4gHxgHhAvx5wWhjZ8TXorSzc8zUlC+Wm+Ls5w6fKZymigXhAPCAeEA+oPVAoT1aSJUtOBrdsZHonu9OXNGkzkDptet0eZ4qUqUmf8R2HxZc8Rcrw402X0Q1HlGTJkzu0PkfEZKhDaddkyVM45DiVOiPqS67b+tJlyEz6TO/oLv/UWz5sHo/TwsjOr0FvZfaWS+FPsmhX/wNmD2opRTQQD4gHxAPigWgeqFWucPi5olK9enzcqZPTF8OTxerVq4ceixJf5qxZHdYOSn1Zcuak0/DhDilKfXny5KFNmza6K7lz5w73sqOONUuOHA6tL1/hiN+ao+Iz1Ke3/FPv8TgtjOz6BvRWZn8RASPXtkyGYB8pooF4QDwgHhAPRPPAmildwxOu4/fvEwxOXxp37kz27Nnx9/fXZXFxdWXBnj0OawfXZMnoOmaMw+pTYGTGjBm61G769OkkT57cYcfaxd0dpSfIUb+L+bt3o7SHo+pTfKLUp7f8U+/xCIzEI7QIjAiACYSKB8QD4gFrHhAY0ReUCIzY3x4CI/q7MK5HMHFaGNn9LeitzJGekWhXAK2dlGW5JG7iAfFAUvOAwIj9yW9c9K4IjNjfHkkVRvSWf+o9HqeFkT3fgt7K5wIjAiNyS4p4QDwgHrDiAYER+5NfgRF9aZdUYURv+afe43FaGNn7LeitzBUYkSTEShKS1K4Ay/FKr4d4ILoHBEb0lVBLz4j97ZFUYURv+afe43FaGNn3HeitCIxEP+lKIiKaiAfEA+IBUw8IjNif/ErPiL60S6oworf8U+/xOC2M7P8O9FbmSc+I9IxIz4h4QDwgHrDiAYERfSXU0jNif3skVRhZtcsPraK3vFQv8TgtjBz4HvRW5m+VR/vKFVDTK6Cih+ghHhAPmHtAYMT+5Fd6RvSlncCIKZToLS/VSzxOCyMHvwe9lQUCI3JF1MoVUfOkRL5LoioeSHoeEBjRV0ItPSP2t0dShRGfXX5oFb3lpXqJx2lh5NAt0FtZsE16RiSxSnqJlbS5tLl4IHYeEBixP/mVnhF9aWcZRl6zYWxRkrm44JK8KN0uvyaYV6zslxNXZV6ynLQ68Sraywgtv/RQta2yvasryVK7katKBwad/J1ACy8PjauXHvrs9kOr6C0v1Us8Tgsjh2+B3spCgRHpGZGeEfGAeEA8YMUDAiP6SqilZ8T+9rAMIxD85jHTmmai5vpHXDHAwpsnTG+WiRrr/s84z7AMsAwjSn0R29Zc938EEcalxz/ivaQNebI0Ycr/wqKBjfLW9biCkdW7/dAqestL9RKP08LIkR9Ab2XRdukZkSuksbtCKnqJXuKBpOcBgRH7k1/pGdGXdjHCCC+Z196NBrteqkBBax5Ry2OEEa363vzBhAbZ+eSAeh/G+uIbRvSWl+olHqeFkaM/gN7KYoERuSJq5YqoJJ5JL/GUNpc2N/eAwIi+EmrpGbG/PRIeRn5nQoNCtDsT/ZavuOwZWbPbD62it7xUL/E4LYwc+xH0VpbskJ4R85OufJdETDwgHhAPmHpAYMT+5Fd6RvSlXcLByBsC/voJ7yWtKVB2LGufG3tDFAgxlLjqGVmzxw+tore8VC/xOC2MnPgR9FaWCoxIz4j0jIgHxAPiASseEBjRV0ItPSP2t0f8w0gaXJQB7EpJmZsyvRax6o+QKPgwQIhhGlcwsnaPH1pFb3mpXuJxWhg5eRv0Vjx2Ss+IXAE1vQIqeoge4gHxgLkHBEbsT36lZ0Rf2sU/jESOQXl5hT7l36XxrgeaA+HjGkbW7fFDq+gtL9VLPE4LI6dug97KMoERuSJq5YqoeVIi3yVRFQ8kPQ8IjOgroZaeEfvbI8FghDec2deNHO/2ZPH/vYn3nhEtEFHm6S0v1Us8Tgsjp38CvZVlu6RnJGETK28eeLZh6uxZvDKHgkvjmN2wJmu2rTQDJi+uD/2AjmMm8a/5NlHfPfh24zT+CoqeNIVs6cSwHr25eS76sigt/AYzvV07Th70NNu3D2FHB/L5gD7cPOsdbVnU9lFxxLAPWUf0Ew8kGg8IjNif/ErPiL60swYjCztl4cONfxlhIewe4+tlodFe7adfxeppWqE/4v5RJvIOOM7ZN8ZxIoZeEWUaV7dprd/rh1bRW16ql3icFkbO3AG9leW7BUYcn0Cv5NvZzZg0sC1Lx3RkWWTx6FuVGgUL061vh6h5y8a0YVLbanRv1ZKjx82S+0uj6JWtOD7+5gm9F9c6Z6XKqMWRiYwXP3mP5LtLqvWC5jCrSAo+njqfMLOE79WaD8lXqi33NEAlSosvu1AnWTG8zWMK9iHsUCsqZv6A3afM4jXbT1Rdluafm8qBOWO5H1MclraV+YkmibXqAxvbMvTgMJaNHcovl1U+t3FbR8WQlOsRGNFXQi09I/a3R8wwEsruhTXIVmc6q359xoWnd/Ba0Iyc7zRi0l3t94LECCOR7xmp5fsk6tasC+dGUSBNUdoceaj54sP4hhG95aV6icdpYeTsHdBbWSEwEm9J3YuFVXivRhd+CbQxmbo0mn653mfDeR9CvvRQ9YJ4c6NbVnLVasa8oa2ZN/RjetQqx7hF843HEjSfBSWzMsLXK2Le5bHMbvoxew94E7KhHkWrdVfVpxHP+e40SFueHReiLws71o5q+eoTFBB9ma3JWuihAYxv2Rr/s8Y6Xq2sRU7XyEF+Li64Jk9J9gLFGTBlMn9fMa5n6z4cut7lEfTL4mochGgYjOiSggYT5vNGR0nxv4urkt2tGgc12i5Kk4A5nJ3WkYmNmuOn1Y7WlifQ8b7c0YXejdtwOaZevQSKLUpbJ92/wIj9ya/0jOhLu5hhBIJf/sSiqe0o+W4W0qTPSr5aPRl9/iFBqideqXsyLMOI6g3s6re3v7nPrDbZcHVJY/Y+k4iekriCkQ17/dAqestL9RKP08KI38+gt7JSYMSYwDs8ifDml/Xu/HBeSaS9CB5aj+X7VL0JgXPYO6Y3X4UvVyXbZ7rQ9v1qTBtWl0qpstJxaGu65k9O5ZEzCQ2P0ZuvuueguvsSy7EHLWBhKTWMjKRP3jJsOudDiG89ihlg5Ow49njMjn6LWEwwcrwd1d8GRs65M6JCJb6I1uuyiifTy5CpVg8eX/HhzWUP7m7oRo9CWemxOIZjdXi7qdpCVfebsz1plr40609HtOFrvxkc6VeCoh/352/VegmblHryZd+atPogF8NXR7/FLiq2C5NZ1fRd3JJV5ogWjFhbnoDH+9S7DjVqd+Nn6VGz/PuPg/YRGNFXQi09I/a3h1UYsQAdagBRf7YMI9q3Yam31focZzCyz48NGkVveale4nFaGPH/GfRWPAVG4vCEvpJTrdwo/nGb8NuyPNzbq27P6siykTUpl64A078wGxNy7lNqZa/NxfNjGJBb6RlZwZaaWenj0YcRtesya2hrRldKT4E6Ss9IKwaUzU6TSbMiQSUykY6CEU+en18Bl93pV6A82y5EwEjRso35YkwLPmuZn9Tv1OKs+ZVmA4ycm8vhKQP44dxo5rdtwcH9Kwh7KxhZzvEWuWk+c5Gm7i/nVcStQX9eRiVTq3g4uRS5mw/VXD8quY5aXxskHLLepf60z1CRXerb4a4s5cTQjgRoJfTxEZP5PgImM79PH66OKk7FflMIMV+u/h4wlE5pLMCIsp615eq64vXzck41y0o199nRbkF0SDvH67HEoV8dfBwCI/Ynv9Izoi/tkiqM+O7zQ6voLS/VSzxOCyNf/gJ6K14CI3GY5Hri1y4b9SdEXtUPnMnGno1Y57soIom62Jd2uaty4KJZQnK+Mx9pwsin1M1eiy/VyXCwAirv0NMrEmiCFnJmdCMm9G/CJ1lTUaNVVaoULM+qbSPol78kCzx6sqxLEdyKNObaWW9CNjegWKWuUbdshZ1yZ1nPpnw+tDJFXHLTe0QbZvRtyeb1A+juVoBZe7xMYSRwDjuGduZytHEtZsdkSIxOdaZWpkocNj/myOVaMPLHhPfJ32pEHLaThVgNMRumahgJmIRP565cdSCEvAlYxv2THm91y1fY/k5Mm7aA19tbUKVi+5h7DwKG8qkVGIlxuUGXBJi+2lKPvNnqckXGj8Tb70JgRF8JtfSM2N8eAiOmUKK3vFQv8TgtjJz/BfRWvAVG4vBk7smFTjloaICRgEmML+hGn+XLIvZpEUa68FEOrZ6RLjTIGQEjj8aVoVjLAdwPUmAkC31WGXtXwgK9CYvqGVnBn1sHsWZUXapkKMBk34U8V40ZMYeRqCvLhp4Rw7iDSyPola0k6877hMNI1UzFGeeu9O40Z/ynDVngMde0Z8ZCgvpicQVSFm/HIwvL1TASdnExtzzb0y5fVnp7LI3QLGgh/kM+oHyWFLi4JCdb0Sr4bDceO+em4Nk4H9lTJSetWy4+aVaVj3LmYJyv4fY4b+57taB1kYykT5uRkjUasf+AansLcYXrooKRl9tbUDmdqpfkylL8R31E93olKJ+3OrsvLMZ/cFlKZEpNnsrt+UqBlphiDxjLyNyupKndghX1s5M5Y16GLXBnWe1sZEyThfbTP7ehF2AV96e3wPuANwSMY0yRsmw4tcro76AlBIypwgfZU5HWLS8dxzSjpRpGLCw/fGo0S9pWo23lfLzXbAD/nR7NnI9ykSVdZuq7T42qP+z4SGbVyW+bcbUAACAASURBVEuONKnJWagU4xfNierhenN2Al5tS1AiSypSuiYnU7YclCtWBd9jEfFZWx7lS0P7XOxPc5e8LDhuI0gatpNpVHtF09SKNgIj9ie/0jOiL+2SKoxs3OeHVtFbXqqXeJwWRi78Cnor3nvkaVqxPSnbvr4nlzrnNMLI5dEMzlOAmbsiE2NLMGLxNq1uNMoVASNPx77He12U23AiYKSXt1lCbYCRtTM44zGFvy6qbtNaX5fCVbuF94bYCyP2jhl5PrMELhUsD55XYCRN5OBwV9fkuOUrxsApU3gWOYA9ZE0d3qvWie/8vQgLWMa1/gVwazUy8nYkb272zU2Fbu7cv+jFi+PujC6WjVHrjWMnQna3p16xKvj4LuD5ZQ9uL21IzXLNbOvhUGAklXGAvUsqFYwEL+ebJV3xGlqF99OWZ86EugydMJb/nZ3EhqEDuRPoQ8yx+/Dv7PKkf7cGO3Yv4ecxxclS5EO27V7KL2OL887HA6ISe8v+82Dv0I58G/6AhJWcaJObbosiwTfYm9uj3yNv1TZcPrmS1/6zOTWyLHlTGG7TimG53zQOTu7MvMa5yFCnJV4d6+C1dh5PNvdg7sLZEcltwAyWVMpH50kT+OOCJ3/vG8LocoWZtkV5gIIXl7tmpXyXEfzi70lYkBfPjk/l6MiP8dmu/BasLdcAjkuj6Z0hK+N3GiBTYx0rybVlHaUuLW0ERvSVUEvPiP3tkVRhZNN+P7SK3vJSvcTjtDBy8S7orazaKzCideJ1zDxPLqp7Ri70oXXG0qz/MjLZUWAkVxX2md+y5N+JGlq3aS3rQsNwGPHm3tAClOo7i7BwGHGjx0oLMBL1NC0VjKyrQ8HIW7PiG0ZerqpO5uJt+dNCoqjuGdFsg8BlPDy9ktDz87jhPYDVrfKStvHQKBi53icX5buM4o+L3oScncjUUtkZt9GQsHoR2CMvjSYsUN0KtZRNdQowOTxptpKEqnpG/tvYmDJp1TASua2yTtrcDF65IHpPRoyx+6A+dkufNTUxaHlxOP2yqp/45Ur+9u4RDycInMKUd/MxZ7dBi4gxIVG3YVlbHhwRX4b3anMi2oMHlHFIjShTrTN/qJ569teM8nzQezIEe/PLhBKUbdyZM9vn82+0p8lZW67RLhcH0MK1AItPaSwz6CFTu3tBtHwmMGJ/8is9I/rSTmDEFEr0lpfqJR6nhZFLd0FvxUdgxKEnbNOTuCdfts8e1TMSsrkxpQo35rphnMHFvrTNVoEd5jByuj1VskXeppXrXUaNb0i1dG6MXNuF+jmUnhEvLrfPTv0pylXvFWypkZnOy2yHEeU9I3krNGXv8Nq0LZmBdLX68Nw8cTO7TSvswnCT27Ts7RnhXF+aZSvPXsPtX2b7VSfhploaks7lXBtdliLZctOgcW3c6+YiTRSM+PDmZH86FcpGoQzJSZ42Gx/3dedRVIK8kn2NU+Ma9VheQy9HGrouNtPPLK7wWFQwwsURjK3YiNPmYxbU60SrI+bY1cdu6bO2JhHavN7QlGHTjaD1clVd3ivSJKLXJ2A43TJU5IB6vJF6zIi15ZEwYvpwAUOb+PByURUyRNPVhUxNBkf+vlZyb20vZrcpTbm8OajdrCV7dht6bZR6rC037kvR4OWqGryTsyE3ooGN6Xox6SXLYqeVwIi+EmrpGbG/PZIqjGze74dW0Vteqpd4nBZGLv8Geiur90nPSNwlJZ4EjWvE6q1KoruSS11yUrzrSILmdWDpdHfunJ3FxdVzeGGetJ4dxKy+w3hwMfJpWmensHnsUH7z70Kzki35+tJcFpbMwSifBTwKWMGO5sWZvjHyfSKGugy3afnM5Oz0jqxY1IM+kU/TeuVdkxxlO/I4aBkXxrVg++7ZrJswyBRIFBhJUYC+g5oxc2RXjm0f7BgYCV5JQNd8fDTC8Jhi04RInYRrtUvY7pZUKN6E4MjHIYd4VCFDFIx4c6VHDlrN8bAAmF5c7JqLxpMWqnpGTPevtc+oeTGCRmQ9MawTc+xv2zPizTcjG+N7XDVG5OJIBuUpzKL93hA4kXH5irNKvfx8f1oZxoxYW24FRl6va8j71bvwIAr8YtD1ykoebu5G58JFWaZ+1LXBu9aWB85i8ftpqTtlbvTeJ0MdMrXwG4ihXaxoJjBif/IrPSP60i7JwsgBPzZrFL3lpXqJx2lhJOA30FtZIzDi8JN2VPKqOrn/69uUyrkrsOWYcpvMSn5e2pRm7+WkVtOW7N2pvkKsShYuGR7ta5i3kpcBPrxYV4+SpVrz/amxLGleGfdZU3mm2lfo2Rkcn9iQGpnTUqFxM7ZvXUKY6tG+oYfHcUqZZ9gmcCrTO3Xk9yAfwg6PZGnXqjQokYvKDZqxz3D12mwAu909I8o+L8/Au04Jxq4yf3eI4T0j3VW9GYZjj5iG+HxI1mKfcMXfk+cnPuNIt0KkyleasZ/PhOBVPF5Vj7JuWfigUlk+bVWPyUO7cnDbkqjB9a+2NKNqkar4rJvL3wFePD8+hR19GrBGffuSQRezacR7Rsrge1aV8Juv49eL5hm014k5dh/+nlmOzLV7hb+zJNrnjyLma3krfN6Fqcz56EMOqx/RfGUx62umperAKTy/4klwr1wUa96PH/29eO0/k30DS5LfJSc9pkzgodXlq/hrRlky1+rJEy3guDyZ6aXz0nXSOO76exFyYQHX536C+5QZ4WNCzvWtwuyVM/m/C168Cfbm+VF3xhXPyujw2wi9iHm52gPLCej9LmXaDbP4EASLGpm1layn1tX6Z4ERfSXU0jNif3skVRjZcsAPraK3vFQv8TgtjAT+D/RW1u6XnpG4TUpW8otHE+oVeZ856yKfCGVIir6cwqoG2UjmkoUec+cb4cCw/NJo+mQvHv4EK0OMIXt60LF0edbsibz3/9w4JrzrQuYPu3FbuWUlYDIT87uQo1oT9u5ZbgStgHEMzVeUFRr3+4cd707DDLmZ5LsCzrkz/sOqePmqYEWJxxKMBC3m7Oh2HA6HLOsJjeE4uDSTrV1r8NkS49VtpVfEMHg9jcm7RlT1Xp7JBmUgdbIU5Kn0CSe39KSlWyZazVLePu/Nb5NK8lG/KTwP8uK/swu4vWUQw0vkY2b4QGmlHi/uejSjTbHMZEiRnMx5ijFi3mxeGzS3NFV6PAyD100GrkfGFjidOSWSm7yhPVmWWpxQ38YVU+yXhtIzk3LbWBq6zu1H1/Tmn9PR08PSrWQr2dVAebqYC2lq944E01U8mFSS1OG3TqWg/byVcHkuB7u/T5EMyUmXrzzL1vdhQKFifNp9QMQjgC0s79iiMqWTG25pU6au5Gw1ItqLMl8fHsq0uvnIkzY5qTJkpU6n/twJvyXRmx/c36dk0by855aCZC6upMuWj3ZDRvN/4WBjbXmkxspjqwdXo9ewMTySFx4af9uWPOvg+QIj9ie/0jOiL+1iDSMhN+hVsjIjfwxD6yWFsX7poZX64uqlh1ogoszTW16ql3icFkaC/gd6K+sERuLmpH5hLpdmt2NCuxr079uLK6dUA4fVSULQQk52yUeBpoOj3651aQTdM7zHyvAB78v4em4zBnVsh98J07rCDnTmoxQFWHIyIml7cXYJ/6j3Ef55JYHDy1C2QE5KFsptUorny0qxig05qAEqT327MrlXSxaNasGwxh8yZbTyON/G9Glan8/HdGTZ8I/pWac83QeP5M9YJ4ie3Ns4mbux3i4yOY12jF6c75iZoq36c8sv4qlNT/cNYUjh7IzfZKpZFBRFq8NS3TI/oTULPTSBi/tXxM3vVXxgVde4gpHzB7rhlr07S54b3lb9knnt00SAfaqajLwTmQA+3069NBGQ3mDXM1b2yxk5/isNDXa91EwStRJHW+c17tyZ7NmzYx0kzrD783aUzOyKS4aitJyxg9P+sUm+7dveUs/IpV3tSRV+EcIVlxTpcCtSkyZzjnP4tUFf7alrsmR0HTMmRh2jt5V2XYrGysWRGTNmWNfvzG4+b1eSzK4uZCjakhk7TlvfRq2vHdvHFkYu+/clTd5J7AjTPt7Ywoi1+izDyCuV711QPJA8bXYK1B3AlGt/c8XCm+MX7NmD0r5fHPDTLHrLS/USj9PCyJV7oLey7oD0jDg8yQqaR8DSYQQeXBa9t0Mz6VnOs3MayXLgdPZMGMrPgd483DIcP8MtU9Hq8ObJ0fkaAJL0Euiw02NZ3LgQ+dMqT5VKwTt5C9Nj7ASeRtMs6WnjcJ+LplYTeGfSPG5g5BWrp/ahTu0SdPrylTERDr3HZ82yUXreLQJVCdaXuwfRZM0dLirz3jxherNM1Fz/yGISZit4aK1nK4yc3TqcklkqM2L9YY7tmEWTvMXpv+mMzQm1vdtbgpFg3nBmQ1PSN/Lh+MsXnL51nOGti1Ggx15OvNFOppXjtw4jFtpK1T5qHW2DkbNsHV6SLJVHsP7wMXbMakLe4v3ZdMZWmLNv+9jByD8sbp2cwgt+JcjCscYORqzXZxlGjL6vteExV3jD5b/vsmFtDwoV6sHiJ2+MvyFVrFEwctCPLzSK3vJSvcTjtDASfA/0VtYLjCSphMKZkiM5FgEq8UD8eSBOYCTkGsOmbGXLkrqUmHaDgKgE6g0n1jQha4ed+EfNC2HL4jks/ceQUCs9KG5x0iuiJNW2wchpVnXIQdEBX3A2/Gq9H/vHVSR76xU29o7Yv71lGAGldyRD+11cMmj332W6lylJ94DXmsmqTTBisa0M7WE6tQlGTq+iQ46iDPjibAS8+e1nXMXstF5hY++IndvHCkYebaKSS02mPDQ9PjV4xQpGbKgvRhhBw/dvHjK5cW6aH1EBvaHtAQOMbD3oh1bRW16ql3icFkau/g56K+sPSs+IJDTxl9CI1qK1eCBxeiAuYCTop5X023CfgK9nUqrOUg6oboMJurOY8nl74WG4fSvkK9xn7cEvKsnSSMqilllOHNVJZEyfbYKRs1voX+RdevpGJtP+/pzd0o8ihfuy+awNV/ffYvtYwQghbJpYhvdnfm03jMTUVlo62gIjZ7f0p8i7PfGN0uosW/oVoXDfzTb1LNm7ve0w8oajy8rj0nwPX8bgLdthxLb6Yg8jfzChYX5anbAPRvSWl+olHqeFkWu/g97KBoER6RmR223EA+IB8YAVDzgeRt5w3HcWE34OI/j1JbqWbcG0P1W3mYTcoG/59+jgF5FgBX6/nIHb1Ldk6QBGTi+lacZqfHZUBR5Hp1I9Y1OWnlbNU49xUH9+i+1jByNvOL2+Kdl6HbETRqy0lUaibguMnF7alIzVPuOoSpOjU6uTselSm2DE3u1thpGwW/QrlIZPTr+wqJsCYjbDiI312Q4jYVx8dAvPJe3IV6g3Hn+pfj+qNjH0jGw76IdW0Vteqpd4nBZGrv8Beiu+AiOShFhJQuRKduK8ki3tJu3mSA84HkaesnDucnaGKr0YL1g5oBSf7PtHlfS9Zu3IIhQcH0gAYez3msmMB+pkSw8wMo/6qWoz55QKPE7NoXaq+syzCUbs3z52MAIXtrcl86d7Vfqa9h7FPGbEWluZ1qUk6DbByLz6pKo9h1MqGDk1pzap6s+zDUbs3N5WGAm4MoLMWUewKST68al7g2yFEVvrsw4jkQ94cHHFNZUb+eoMZMqNZxbHTkXByCE/tmkUveWleonHaWHkxh+gt7JRYERgRGBEPCAeEA9Y8YDDYeTFcVrlShbx1Kzwpz8lJ+eQs1xWXdG9cKQ32T6YyfZXd5k8cx1HVLdxBWvdO6/aVp0s2vPZptu0Ti+lWbSekc+onqmZzT0j9m4fOxh5w6m1Tcg14KR9MGJDW5lrbBOMLG0WvWfks+pkamZrz4h929sGIy/w6paGPNNuWRy4bjhm22DE9vqsw0jsxkoZYGT7IT+0it7yUr3E47QwcvM+6K1sOiRjRhx59VDqkqvR4gHxgDN6wNEwEnB5Kh1970ddzb3kN4y8ZSazRX0V+q/t1M9WkxHn1zJw1S9mSaFGz8ibF1x4EfNVbEMCaW1qE4yc3UK/IoXotVE9ZqQvhYv0Y0vUOAhVr4mqByD8kcFvsX3sYOQ160e/T4XFd+yCEZvaygwEbYGR8PE1hXqxMUqrs2zpW5gi/bbY1DNi7/Y2wcizPXzoWp4x99S9cdresglGYlFffMOI3vJSvcTjtDDy9QPQW9lyWGDEGROHxHxML1Y0oV2HHlz3j0hqw44PZc3cGdHfw2LlSm5i1kBiF6DRmwccCyOh7Fg0ken3VYnei9O0K1STkT+pXiz35g8mfZyZwtX7MuaHULNEOjqMXA70YLS/9iBea/BhvtwmGPE/jWe77JQYsi3qaVp7x3xArraeNj9Ny97tYwUjf5+mffGKDPzaXENjcm35Ni0b28oOGPE/7Um77CUYss3wNK29jPkgF209bX2aln3b2wIjJ9fWxKXeJk6bHZe5T5TvtsBIbOqLKxjZcdgPraK3vFQv8TgtjHzzAPRWvhAYkdszdJXUe3KuTQbS1+nHQ8PLEIMWsKqKGw0mzCRUV7FKwqy3hFniiTtPOhRG/vuKwS364xH1mF7l/QmPmPpJZkrPvMGFqPdhhLFvYXXSVJjJ9vCxJcbk2fCekVq+T8Lft3Dh3ln61mvO2LsqmLEhkdRKLpV5tsGI8vSsIbyftRqjfI9ybPt0GuYuzoAtxp4Say9NtHd7yzDyhrO+zUjfZA0nX/7DkSvb6FE3P/n7HeZ0lK4qHSM1sggjNreVaZ229Iz4+59ly5D3yVptFL5Hj7F9ekNyFx9gW69SeC+TfdtbhZGwXxleOjl1DqjHMJken9o3VmEklvXFCCOR79epFYv36xhu09p52A+tore8VC/xOC2MfPsQ9FYERuLu5C2JkR3aBkxgWK7sjNnkZQKJT6eXxLVIS342AIo1KLk8lxNDqlA9TzrSpkpH4Uq12bQz+tu7Qy8sIGhSdcYtXGmyv3hpu8AV/LGxCz26D+SlyfGs4vHGLgyqnJMcaVKQIWsemvYczN0AO/Q0qVe2j5d2dVLNHQcjSo9GxADcVC23RD4y9Q0nfD4mZfjYEdM3qgdcm06DaVdV7yBRkkJjHUrSayiuOfqy4pXlpFGdQFr7bCuM+Psb3qDu8pZvYI/d9pZgRP0GdteU6Xmn+Ec0nWvvG9iNOtvSVmpNbYMRf/wNb1B3ecs3sMdie2swEvTNZLKn74uPjV6yBiOxrc8yjBjbw8XF9Hei1t78szUY0Vteqpd4BEbiEVoERiRB01OC9mr1hxQu35FfT8/hxqaJBG2MLD59WDd7dOR3d7wa5KZKD3eeaCZ+3twaWZlRHrN5dMGL1+fmcWl8BQrmqM5RP0N7e3NvfHFShScyKWg/L35hJOzop9RLEZFEpWnQ3wRGwo72ZmyXngQdXsaryx78urojbXKno9GkufEPTJr6GjSUqZ5+O3Edi+NgxDGwYJ5wOfq77TASw5gQ8zEiDvxuCUbs1cFiz4idvUs2w4gDNbHWC2VYHjOMhLF38QcUmqR+CWfMno0ZRmJfn2UYiTkOS20vMGJfR4DTwsh3f4LeyhdHZMxIXJ/EpX5bk9al7KyTgmwN+vOr/1T2TOjKtsXDOLZcXYZyYPGQ8HnHvSby22Wtur0J7vM+UzZ7G5P3KwvZUC0j/bxNe1wIWsia6mnjHUYiPOHNwymlyGwGIy+X1KbjlHmERYGAN3fHFCVr40HG44lapnX8Mk9+c473gMBIwkCHIYE2nwqM2N8eMcNI7BP+mGEk9vXFFYzsOuKHVtFbXqqXeJwWRr7/E/RWtgqMSIKnk8Q2dFdLaqR3JVX5T/lDuR0r8HO+2elh2j4BkxhTMB0N3KcSEpu4ryxkXc0iLNmvApTw7Veyq0FCwYgPL+dVxM0MRsIOD8Fj7gzV+JhVPJleltLdxptqEZvjl3VFu7f0gMCI/cmvOUg44rvAiP3tITBiCiV6y0v1Eo/Twsit/wO9lW1HpWdErqI6/ipq7DX14GCbskweWYVCdfryPDxxWsTGLk3wO6+K73wvGrtkjTamxOL+rnjx/OQMTrh/xIAJn0XWq6ovWH8wEu1Yrixi6ydlWLDTrFfnLZPLaPuR+gRYYvCAwIj9ya8j4MO8DoER+9sjqcLI7iN+aBW95aV6icdpYeSH/wO9le0CI5KAxJCAxFfC+sK3NUPcP+PZ8uoqGPHm/pgSVBkwNaqXIMS3PkVKtOSOTQPZvTj2SQpcXNJRs+cw/qd5S5feYWQVD5a1YNLns3mtg3aKLz/IftTArI/PAiP2J7/mIOGI7wIj9reHwIgplOgtL9VLPE4LIz8+Ar2VHcekZ0QSn4ROdjz52ns094J8eLG8OgVrG3pGfAjd3pgi6Stz+EJEjA/GFKXSgFg84veKF/+dncP5iVWoWrsnd6NBjJ5hZBWPfXviveJzAREBsQS/aCIwYn/y6wj4MK9DYMT+9kiqMLLnqB9aRW95qV7icVoYuf0I9FZ2Cowk+EleYMgIQy+WVeNdFYxwoT8tXdLTf7UnBK9gT6PiTN1pPu7DuL1lLZew5cPcTNxivq1eYWQVj9Z2w3Pl3NiNjZGkXX7PceQBgRH7k19zkHDEd4ER+9tDYMQUSvSWl+olHqeFkZ8eg97KruPSM2I5gbUlyZV1HKnfC4+q5Puoj3FsR+BUxufPzIA1nhAwgbENmvJVoDXNvbk5sCSTfFXgcWUxG2u6MWSN+bgLfcLIP5u7s3iR6tasoLnsnz9BEu04SrQd6WFnrUtgxP7k1xHwYV6HwIj97ZFUYWTvUT+0it7yUr3E47Qwcucx6K3sFhiRBE9HCd4LjyrkrdXbCCPBnnznO4knQT6E7mvNANX4EctJnzffDf2Akcvm8W+ANyHn5xM8rRol3/uYS5G3exm2DftyMtNLpaJCz3E8NrxUMGgGi4q5kLxUB36MdluXD1hZHra7HeVdXKkyembM3gpaxrX+BUlXvDEXzxghKez4UBZPnMCzqHZZyb1l9ek8ZGrM9UWtbw3WZLmh/WVquxcERuxPfs1BwhHfBUbsbw+BEVMo0Vteqpd4nBZGfn4Ceiu7T0jPiCQktickca3Vi6WVyVWjF/9GS6y9uT+pMXO3R/Z2+I9lTsvGHDmh6v1Qb3N5Dgd6laV0llSkTpOJsh814dAh5VYvw7GqX3oY+QbnFAWYs8s7CjZcirXj+xhgxNLyCBhxofzIGar9GfYbMVW/9DDi7dHJqTh4evj6yuN+06jeKh2xPAXNpi+xWJ/xuEz3I/NFD0d5QGDE/uTXEfBhXofAiP3tYR1GnrN9XT/K5k+Pa/L0ZCtTn4+7TWDB72/QerGg5feMGN6Ynpxcw08wu30aXFxSUnzWNbyGFSCZhbeox9V7RvYd80Or6C0v1Us8AiPxCC0CI5KsOCpZcUQ9LxZV5J2q3bm1uCVjerdg7oi2LIws8wa3NH4f0pwpvT9h0ZLZkqBHAZZ42REelDq0fSQwYn/yaw4SjvguMGJ/e1iDEf+jvShYfx4bHvxHYOh/HPnycyplLUbfm2GxhBG48ngjHxXsy/L/IOj3VVQrPhyflxD8/AT9pxzDX+MN9wIj+rhw77Qw8ssT0FsRGNE+8UpCkjC6hO4fh/++5QIYAhjiAZ15QGDE/uTXEfBhXofAiP3tETOMhODZOwv19vxnAh5n9g2it3+IyTxDL4nlnhEIDrlCz3LNmfroDcGvz9GpVCfm/QtX/m8r47c94ooOYERveale4nFaGPn1L9Bb2SO3aUnSo7OkR0AwYUBQdBfdY/KAwIj9ya85SDjiu8CI/e0RM4yEsnVyEXJ2P8DJMIzw8eYVl1+rvqsgIkYY4S9mtC5Hj8AQgv/aTO3MFRn8bSgBF72ZeFUbbuKqZ2T/MT+0it7yUr3E47Qwcvcv0FvZKzAiMCIwIh4QD4gHrHhAYMT+5NcR8GFeh8CI/e0RM4xA0IOjdCiTnoyVBzDp4n0uq8DD0BuinsYMIyH4ji9PvS/+5vKFyZTMnY9mh55zdKMnC59pw018w4je8lK9xOO8MPIU7uqs7D0pA9hjuhooy+RqsXhAPCAe8EFgxP7k1xwkHPFdYMT+9rAGI+Gg8fo+a70GUjZ7WnI2nsWqh9rjRZR1Y4aRN5zxbUnJqVfZ7zOdnu61qLj4Ozy9fNgRGs8wctyP/RpFb3mpXuJxWhj57SnorewTGJErolauiEoiJsm4eEA8IDBif/LrCPgwr0NgxP72sAlGDL0hL+4wf2Bp0pedybZX2vAQM4xAwOWxFO+8mfmfL2Dtvl4U6reK8Z5HuGDYh9k0rnpGDhz3Q6voLS/VSzxOCyP/+xv0Vvafkp4RSbQk0RIPiAfEAzF7QGDE/uTXHCQc8V1gxP72iBlGwth1+CiH1eNFQn9k6Af56HRRe4yHNRi58mg9tat+SuvZB/G/NY/yHzajp89PBJpBiOHWr/iGEb3lpXqJR2AkHqFFYCTmE7AkKKKPeEA8IB6Q27QcARCOrENgJO5gZMecTxn01Wvj4HWeMbdVdlr72Qcjwa8v0rVYJiot+4Wg//bTJEtOWh1/qarftMdFYEQfF+6dFkbu/Q16KwekZyRR36Z1fetuShT8i2PLjybq45BkTxJ+8YC+PSA9I/Ynv46EEENdAiP2t0fMPSPg90UzUhfvzazrD7kY8oLjX06lzHs9WW5hwLm1npHgN38ypWlxPj3/muDQ7xhcvSFjf7M8BiWuYOTgcT+0it7yUr3E47Qw8vsz0Fs5KDCSqJP4pe7KbXaEl8Y1fuOXg1sT9fFIQqrvhFTaJ+m2j8CI/cmvASAcORUYsb89rMFIQOA86n3alQ8r5CaFS0oyl+2Ie+DfFnsyrMIIr1k7xZ25T5UekOcsGjcJHwuPCVZu1YozGDnhx0GNore8VC/xCIzEI7QIjCT+5OLyhn1UK/MwHEjSpAplQs/r/OW3QaBEBuaLB8QDDvOAwIj9ya8jIcRQl8CIbcKfzwAAIABJREFU/e1hDUYMYzdsnVqHEdPbsKzVKzCijwv3TgsjfzwDvRWBkcQPI4ar1ds+P02urM/DoUSZek8877BExLAPmTqPX6QtpS1j4wGBEfuTXwNAOHIqMGJ/eyRVGDl0wg+tore8VC/xOC+M/AN/6KwcPC1P04rNCVnv6764tJZp/YNRekiU27fKF3uEn88hgRK5Qi4eEA+8lQcERuxPfh0JIYa6BEbsbw+BEVMo0Vteqpd4nBZG7v8DeiuHkiCMdPr4J+pU/D1RFWWQumFsiD3TVnV+kfEkkoy+VTKqdxCX+OK2p0dgxP7k1wAQjpwKjNjfHgIjpjCit7xUL/E4LYw8+Af0Vg4nQRgpmOfZWyX29sDA226j9HTEBqCqlHqIW8aXUccp40jiNlGTRFj0dXYPCIzYn/w6EkIMdQmM2N8eSRVGDp/wQ6voLS/VSzwCI/EILUkVRhQgccbkQRm4PrLzV1EQUqX0Q77fvcMpj9UZ20+OSaBGrx4QGLE/+TUAhCOnAiP2t4fAiCmU6CX511scTgsjD/8FvZXDZ5LemBEFRJwRRpQB624ZX4WDiLx7RJJavSa1Elfi9KbAiP3JryMhxFCXwIj97ZFkYeSkH4c1it7yUr3EIzASj9AiMJI4EwN1QqcMUFcGqiu3gikworx7RL1cPif+NpY2lDZMaA8IjNif/BoAwpFTgRH720NgxBRK9JL86y0Op4WRP/8FvZUj0jOSqBN39UsPB7b9lvsnNifq40nohEv2L0m/eEDbAwIj9ie/joQQQ10CI/a3R1KFkSMn/dAqestL9RKP88LIc/hTZ+XIWblNKzEnHwp8KG9ev751t0CIPC1LPCAeiDMPCIzYn/waAMKRU4ER+9tDYMQUSvSWl+olHoGReAQWgRHtq4CJGVAkdmlT8YB4wNEeEBixP/l1JIQY6hIYsb89BEYERmwBHqeFkf97DnorRyN7RtrUrcDMgS2SRHHLqDz29mGSONak0qZynEnjtyvtnHDtXKNsYVxcXOg/fToTV61y+pIydWpcXV1xd3fXZVHaolqjRg5rB6W+ouXKObS+SpUq6VK7ihUrhnt54MyZOKLkKVTIofWVcHB8hvq0btFS5uktL9VLPAIj8Qgt/gE3SZ06NalSpQqfKp+dvbi6/opSnP045fic38vSxtLG8eWBlClTkjlrVjJlycI7OXI4fUmfKRPJkyfHzc1NlyVrrlwoMTqqLZS6UqdN67D6FJBLly6dLrVT4sqWLRtFypRxSMlVoACFSpZ0SF1KTEpdxcqXd3h9AiOx6xBwWhh59BwSWzl60g9nKzlzvkApznZccjzO51VpU2lT8YB4QDwgHohLDyS2vDS+4nVeGPkPHiWycvSUH85WomDECY/N2dpKjsf5fn/SptKm4gHxgHhAPx5IbHlpfMUrMKIjYHHGfxgCI/r5J+iM/pJjEn+JB8QD4gHxQGLxQHwl94ltP04LI4//g8RWEsuPKTZxCozISSI2fpF1xS/iAfGAeEA84KweSGx5aXzFKzCiI2hxxh+fwIicVJzR13JM4mvxgHhAPCAeiK0H4iu5T2z7ERgRGInTcSoCI/LPOrb/rGV98Yx4QDwgHhAPOKMHEhskxFe8AiMCIwIjMrg+Tj3gjCcUOSZJlMQD4gHxgHggth6Ir+Q+se3HaWHkyQuQkvAaFHgXlCJtIRqIB8QD4gHxgHhAPCAeEA+Ye0BgRKAlTkFBYET+6Zj/05Hv4gnxgHhAPCAeEA+IBwweEBgRGBEYEQ/EqQcM/2xkKice8YB4QDwgHhAPiAfMPSAwIolonCai0jMi/3TM/+nId/GEeEA8IB4QD4gHxAMGDwiMCIwIjIgH4tQDhn82MpUTj3hAPCAeEA+IB8QD5h5wGIy4uIAU0UA8IB6IjQf+egFSRAPxgHhAPCAeEA8kXQ8IjAhECUSKBxLMA3LySbonH2l7aXvxgHhAPCAeUDxg6e/mzZu4uLgwfPjwaKu4RJuD8Wqw1rLEOi8kJLFGHhF3aGgijj8MQsP0Hf+TP+C5vkMMj+7ZM/0Faeg9+eslSBENxAPiAfGAeEA8kHQ9YClLSVgYeQlPYyAlS0Gbz39xDmZtgj9emS+x4XsIzKwLzSfDr/GQ1F8/CD+8tCGuWKxyZDDUGQSBj6NvFPoDtK0HawIhIXL+p48hJllDbsBHJcF9I/z1lgFe94bhHvCLAzwVpWQITK8IBZtCwD9Rc/X3IQSmVocP+8NXDjz+5/vhk76w7xv7/CMwknRPOpJwSNuLB8QD4gHxgNoDlpKnhIOR57CyGeRrDNf+NQsvFFb0hIkb4YENvRb/boI0yaHDlpgTX7O9RHwNhblVococ7W1f3IEfLCWhr+D8bti61bayZjzkTAFFusAdG45LM17zmaGw6EMo8Kk2TD1cCxmSQ/3F4MAc1TwKi99/2QYte0OABigpG933gbQpoNc+bf0tVqy14DlMrQRuFeH0E60VYj/v6VEokBzyNIcfYqKq2Fft2C1CYXYlKDLUsb04L3aDW0rouMG+egVG5ESkPhHJZ/GDeEA8IB5Iuh6wlPjYDSNhD2B6F+g1BMZPgsmTbStjW0GafDBwIowfD+PGw7JTZuGFwvwakLUBXI8ElWdnYfoO7YTo+RZIlxrWWEpAw+AbPzh6VKMcgX6loNxgOGK+fCc0ywu5msBNC/fp3D4J24/AxUC4csXGEgz3zAHMIMEzOL0JPp8Ksz3g9C0rV6SfQsdSsPOBoQLT6Za2kOkj+M7GRPrZLdi0AqZOBY+NcOupaX1R30Lh5j6YMw0WfwH3LPX2hMHhPpDxfdh1N2Jr9W1lW1pDpo/h7lv2ihji+uckFEwJA08b5kSf2nxb2CuYXQUy14WLO6GbB9jT+RYeQRj4ecLBn43xhP0J+zfDxo0RZeeFCCD77QJsipy3aRf8YYs2kVBd9jNwFOcqkb44ANndYKcF/xuPRvuTAUaeKr2gUkQD8YB4QDwgHhAPJFkPaGcKYDeMWKrQ2vyn6yF9RfgmpowpDJbUhtITVYlVCCyuC9XHwD2zxDocRtLARksJPvDzUVi5EQ4eg1OnVOUkDCwDFYbBSfV89efT8PVDa0f29st/2w9t28PqU3D7DpzfDLXzQksvMM/171+Ac/fgxXHo4hHZqxAKh5ZBQCRAhD2EVllhsFliHnoPjgWbxRsK+8dB+zFw6gbc+RY2j4W874LX12brvoDlTaFIC9jnD5vGQrHqcMZC70foT/BhaijmDq9CYNUyCB/e8BjaZoMeB8zqN3wNg39j250TCoe94VtzwZQ6w+DMRCjTBr61od5by+GdzDD/ZsS2GzvDiONW4NAQu9n0yeGIHpZhX6oWPIevT0K1lFBiAARHwtqzX8GjObhVAZ9TkVqpNtP8qAB8dXA4jByCnAIjSfbEIQApEC0eEA+IB8QDjvKAZv6CjmFkWV0zGFGu0gZAmZRQZhSoO0GU27TSZoRt9ly9DYWFNaGOh1mSGQYXtsCNGADHkqj2zA/7A1rmhuW/mW59zwcyZQRvs/nfzYZ0xWD4YBg4OrKXaTAUSAHvjwLlzrKflkDmvNDPrOeqYzlIngPWqK7S/7EBcteH39RX4cPA5xPI2Mh0/uVJkLYInDHcvhYG65tD3u7wSL294VBCwbsF9NkH/5yF+ZFw9GADuOWE2Tth797oZVl3KNAAgiPbIPRXGNMBeg2G0eNgnFnp1QAKV4URZvOj1hsD3dtD23YwdpshOO3pq2+g7jvw8UojEIf9Bop2cy5pb2Nx7jMYVQMyuYIJjCgbvIBOmaGhj3FrBSIHNoMzfxnnWf0UCgtqxAwj326BTeZgaaXiF4chlwNgxMpuZLEoIAqIAqKAKCAKJFEFHNIz8ugQTF4PN76Bb1Tl3GJoNRnuqnpBbO0ZWVEvOowoV7aX14XkOeGg6sr2X+sgTTbYp5qn1Z6Pz8OYITDcHSYZbiubBA3zQ8HGpreZTewDBdzg/W4OHN+hCir0Gag55/kOyJQSZn2rWgkIvQVVUkKnnabzb8+HjJ+AOl8Nuwd1M8EGpdvhXxhRFsaqr8RHVvFFG8jWAdQdGTs6QMpK8K2qrZTVb82BlJlhp0HbR9DGDSrPNh3j8WwnuKWCed+bxmnyLQy2ToZLSq9FKCyuDXWnwbnz4OcP58+ryllonQvcSsPi8ya1WPxyqBeka2FjT4LFWiDsCYz9AIr1hfth8OAHeBzZG/foGJTOC+MOGyElhqrCF12YDKN84IMUNsBIGOzoBzMDzWoNg0tbYcVyWK5VlkGbwpDvE/DQWL50HORLASnygqfS02Ph71UQTN8AhrvzTGAkFL791gzaLdRjmG24TcvwXaaigCggCogCooAoIAqoFXAIjDz0jhgHMm0VrF5tLJ99AqlLwnHVeIa3ghHgrjcU+zQiSTQcyO8rIG1+OKl1a45hJWUaCvfumiWRlnpG1Ns5+HPIHehWDOrOMSbOLw5BDheoMM00vtDbEbfxdN5jGsQvSyzDyKbn8MMyqDPZFHgMNWxsAfn6m976pSTyLslh2leGtSKmt+dBSjfYEwkjT7dBpmQwLsB0PQWEaqeADxdbTlYVsBo2L+L4np+D8tXgmjII4yUMrQi9POBBZM/Kn1uhTDPLY3VM9x7xbWsbyD/A9Li01otxnvJghU+gcAe4FTlA5PQgyFHROObl1jookA7qjoHv1ESpUfHLIGg/HP78BiraACN3N0Xcdqc1NuXpbbh8E+7c0Si3wb0MFB8KP2gtV8379U+NQCNnnR8JyV3hE58I2DSBESBoCQxcE9HzZrkW4xKBEaMW8kkUEAVEAVFAFBAFoivgEBh5shbSlYYrZlfVA8aCW3vTQedvCyPKIZgPQP5+DqR9Hy5rZXDRj9l0jjUYeQWb+sOML41J9oOT0LUDDB2t6mEx9LQo00nQqCDkrWt5+YTxMGESHL9nDOdOINxWd3UAjzaBWwbwVq2nbHFvmWUY8b0Dw3rB1xbgbO0nUGiIWdL+DAIDoj9ed1NryNAI7kVCwqXR4JoKNpq/0+IF9MwOWXtYfmrXuYmw9HYEFHo2BXf/yGN/AZ+6Qb4+kfAUCp7D4ZyZFkalND4pTxWrBTUWmPbYhK8ZAkeUQfZmY42i1fIXzG8M1YbCzyovKQl6mjqmt6rd2gylMkRAeJ/5EHw/Wm3h1DW/E+x9CKHfWoeRkJ+gs/KkNWtxauxKAbpBBSB9IxsHvGvV8RR65oVsTeB25G/ZHEaU3sntXeHD8bbtR2BES2iZJwqIAqKAKCAKiAIGBRwCI//4Qvp4hBFD8Ibp+VGQpgbc1krinsKSXtClH7iPjT7OYOwAKJ0FCjWOvkwZazC6B1QoBWXqwB6zcRuG/UebKvfv14QKU017OaKtZ21GCMypCsWGGm+bMWyi9AZlsnCb1oS18OVjuL0Jph8yS87DwKshFBtl/clQIV9D1UwwVDUAfmd7cMkFR81B5xWMLgYpGoDWhXdlHESvbvB7GPyxFZpPNfYKKU9ma5AOqo6IhJ4weKQeFGQ46JimL6FfXijbPno7ju4A6V2h6iwzAFPV9yQQ+jSBiXuiw5QCYGnrG3ttDJs9CYJuZcDVBVLmhQHrDUsipt8vg35bIyDWKoyshCV1IVnxyNvYTKuy/u1PaKT01jQDr1+sr661xs+Kp7LBqjvGpdFgRFn0BIa9DyV6wk8qaDNuZfwkMGLUQj6JAqKAKCAKiAKiQHQFHAIjytOsMsYjjLwyS4C2tYNMbS3fOqJ+lKyJBM/h81qQsy60HxE94f9mLXheMdlC+0sYbBsHKy9H9p6YwchfP8BvZjFrV2Q698ZcKNIArmjcCnTfEzLWheBbcCuyfH8BqmcEX8PA8hcwugL03mXs1VGubHvUgVITrMDIC5hbBxosML3Vy7cZuBQEP/PjCYHJpSF5LfhVYxD7t/Og21YI+RXGj4NfVOD46hIUzwQjp8IhjWM1VUX7W+h3UDkjrDTrQVLWfrQa0uSCgxp1h/4Jm+fA+AXwnXlvT+SulB4+LRgJX/wSTq6Ao7+bxhV6B3r0Mj6y2BqMFFFuU/scaqaFNl+o2su0WovfXp6C/JlgzTHoMNVK22rV8hT6vQfN15rCqyaMAM/84P2UULSnaY+RedUCI+aKyHdRQBQQBUQBUUAUUCvgMBjJYAlG2jnuNq2wR7B6CmxSD8ANgUml4QOzsRbqg9T8HBpxu0nmMnDsIezuDytUV4TvH4ZS6aHUp3DdylO6XgVD+VSQ92O4oNxaZAYjIT/D2D5w8FfNSDRn/roDPmwOQRYS5AdekL48LFeN0Vm9CEqmV8GIMgB9bkQivsdwy1PkO1xi1CsUdvSG5guNvReGILe2Bpe8GuNzXsG4EpC8bvQeBGWUfZ+qcOgfePlrdDB76AMZK8D5DTDRcOuWYYc2Tu8uh0yV4VsV5Bg2vTYF0lTWftfKk1twxwBvhg3MpjHCiNm64V/DYFMf8FZuSYv8swYjeTrB/VDY0wVSVYKvzG55NNRjaXpjKqRTegdfwrzmsOkPS2tqzw+YDEU/Nd6OZ1jLEowoyw/2gmSu0HClKcAYtlWmBhj56aefkCIaiAfEA+IB8YB4QDxg7oG9e/fi4uLC8OHD1SlE+GeXaHNUyYV62fNNlm/TytjaMTBy5wC0bwV7zG5BCbkBFVJHf5eGOr5on0NgV19wKwpbIx9v+/xLaNAXHofBvYP/3955gEVxtX2ftjRRsMSGLWqIkYgFY29ETVRExf7YDbbYu7Fhixp778bee0UvC/Yo6qfYon6KRj+sr6ivygu8u/v8vmvYXXZmmF0WNXmeJx6u61w7c+bMfc75z7B7/uduUOMbmHzIgR1mI6yUEjmWgMMW0yIVGZH6T74BTcrBmCMZ73o/2gV1wuGinUWyREZsmWmlRtMyT1ofYyJVsyy46WFcMFSabGMBaYRdvSB8hram6VA3cMoqi65lATcZuvuDj4x8/nEC1qyBn5tDyX62TaR2tIViUubw69BqoO12lq7SfRpMeWmqavmLAJJ8e5qzdPJUFZklI0+3QXgkPHwMj80l/hQEuULELlNdgkVLowrtq79gCl8dsU81CHunehgfDBUmmp7ps01Q5UdlpDV7t787C7Wqw3ELYZU1tkdGpPwxIVnALTC9v5hFhIWMSF8yoggMxDsg3gHxDoh3QLwD4h2w9Q58EBl5swI8c0NnlU9Gp8rgGarcXc+sA3viY5jVDgJD4TfLYt+y0gEOdgc3b5go15bIrqsPpbCtc5qAuyt0PyS7aoTFjaD5AOg5Hu5koA2x3PliN3zuCyNPW2rSa0YsVxIOQyk/aLVUSdAs16XPhKPwfSOIsaERsbSVzLQ0yUhW+FW+qNTDvq3w0mI6ZdYkhajzqkiCpaSAP0GjycpnZulT+nw4C9xcYIpMi5R6/SU0cIfScj+ZJDi1EEp4QcvNcimy4zfQwR/6SBqRFBj+LezQeM6yO9IdJp+FwHywTsuJXEqgWR2+GuoAsUwn2VSRWTISdwBmTIfpsjJtOBRwghp9TPUbLeZ/KjIiPYNlDSDLt0pTNhtDS62WIpMF+MF8GeGcXBP6yHx9bN0v/T+MaAHbzAkX1e3skRGp7SYpJHQJ28EjLGQkIiICUQQG4h0Q74B4B8Q7IN4B8Q7Yegc2bkyfBM5hzcjzJdrRtC5OhtCflT4HDpERKTJSdchdDkrngqAucFftMC2l0vgNgn2g6VL4ORQifrW9iJYWTk9OQMtyEDYYyntAv5PKpZf+OtQKgHmxynpbZ5JTdkQANFupclTX0IxYZFwYCz46aKiRVT35GjSrB9HyBCASR3gIk5ZZJJg+bTqwZ4Vl9hbzKdCvODRYrpQnnV2bC/WGmbRD8qsPV8EyM/kwXINyrhC+Tt4CkqNNGcbVmKKHscGgDk1sufvhMshXCa6ZzZKujIVKYzJBHAyw8Huo9LPqGVg6SIYehaCeCj/LZUc+M0tGtGRmZKYlT3r47ggUcYMBjuRX0ZvytUhBDuSKNClBaPkvYZMNkpE6RiPsngS77LTJiIwkXYKp22xo2WxoUrXwEXUCAYGAQEAgIBAQCAgE1Ag4TEYSdkPXaRq+AmqJgENk5BW0yglOLlB1NDy37OrL5KVIYVCLQ1AfU7+G+xDuD6W7wh2Vc3ViHEzrBuFdIeouGF9Bfa/0ZEQSf2cFFC4I44/YWNxaxmCAVS2gjpYWwQ4ZkTJuRwaDiw/MlmsXXsHQBrDWsrtt6UciCZOgnWrxbzO0b1ZYohXOyiIvCTrnhVYqTcWrY9Cgg8ZufApMqgvrLCtdKSt7PfBtYIqMZREb3dvkl2EhFZZ6SdvRpyiEqiJNpV5/Cd2+VEbrkohXw0Iw/nyaBLsHd5dC0apwSYOsSjcaH0GIp1nzYleS7Yt/NRmRfI6mVIHs4Rn/T12YALlKwAEVgZVmc/FnyBcE2zTeKduzVV7JiIwoW6c/s2hG0l8RNQIBgYBAQCAgEBAICATsI+AwGbEvRnn1zUrIEgzXNRyN5S1jp5tMWrSIyIP9EOIPlQfBQ5mc+LWQ1xVKj7RKio+G6fPhoizxouRQrSAjKXB+E8w/YNrhvbwAikihZrvAwTvaPh4nIqHFDBuaGPNi0lZo31d7oKAHjLtmHed5yYynEnTtBt1kpWM45HGHQb9Z20pHNpMeZoUFWuZK5tslbc73WaBXtEyeHoYHQaU2yr67dYXwYHAPgN9kBE9/G0LzQfNVJv+Ol6egYj4Yc1Ym03L4Aup5QPB41e65Hta0gpBJSs2ZdNvFMeBbHNbctgjR/nx1CqqVgU12AgO82w25vWCx/Plri7NZawntK2Vjf9+/pGgo4gRNVaSSd9DMB2rNUb5nz5eBuxsMkZv/qTq/vgSKFoOlN1QXLKcGWNsKvPLBoM1KzYmlSUafSXsgtx9scdBsUS1PkBE1IuJcICAQEAgIBAQCAgFHEfg4ZMQIJxZC5ERY9CuMCwOPqnBPRiJsDcioWvwlP4DZEfBFKRi7O30+CMkkaHx58KhjS6K5/jl85wU9t8GaSKhdA0ZtVy6KHx2GBoVN2hn/MtCiC0zaabr/2lqYvEtpSvT0NMxbAKs3wva1EJLTToQvA0StU0YuOjcTGjWEhlolHHa/UM7pzhTw+gIGDINhltIbinjBHHk+lLewdiqs2AanYmDnUMjmCyueyeSlwMy2NvpuCOHD4YXqWSTdhtFt4PsGUK8pLDuvXExbpBvvQ3UdFO0jwysRVneGxlNsOFknwbgKptwdo/dpO7S/OAkNQ2CDLGKV5G8RsxYWbYWbEl7JsCIcdBqR3izjc+RTK+mhI/dJbQy3YfII6NYaQhtAaFPoMwwOxIPhAUzrC+GhENYaxm41aeMkwji9i6l9WCuYrzbXkpI4joCva8JuO0QsdYxJsKQpuDtD/koQuRJuy32KNCZyYQ1MWQBbdsHC9qDLDXuSNBo6UCXIiAMgiSYCAYGAQEAgIBAQCGgi8HHIiCQ6BS5ugkbFTaE+K03KwARKPhwD3D4K43pAk+YwcTM8txP29Olu6KtlEiST+XYf+LuAsw4q/gixr2UX5YevYdMoKO0PHZZb+1WTJMst8adhQAjonMHJFTqYyYvl+sf8/P1n8AlVLuaN8VDHH9aoNCP657B+KPjrwMkZinZN7xfyMcemkGWE6DkwyxxF7HUsDGgOY/bLyIniBtOJZHbX5nMTGQyOgFiZmdiFJdD6R4jRME2STJxiFkFgVnBzM8231kyVVkajP3tV0b3AoxLcdoBA25PzMa49j4G+TSBiNjy283+g6EsPuwdDHh0UD4XFJxRX058kwpHZUC676f81f9v0ZDT9Tdo1goxo4yJqBQICAYGAQEAgIBDIGIGPR0bMfRnuwNhf4KEjiyg9HFgCUyfCwq1w255TdsZzUbZ4Z9LQjMpgQZx2k1F71z/tuvwgESJrQ9sZ2r4u8qYfcvzoKOy+qZKQDI/s+IucnQ7dpsJ9G/4VKmkf9VQfD2tnwZhZcNsS1jaDHvT3YdF6mXmREQ7PhyVHNbRiKll//ApBFWDIqg8nXof6Q9jED5ejGmKmTiWiuXQijJ0HNzOItGZL8ONYiM8EoXpzHFpHwAVbZN1WR7J6QUZkYIhDgYBAQCAgEBAICAQyhcBHJyOZ6l00/nshkJwxgfh3nbDeEfL87zr4f/G4BBn5Fz8A0b1AQCAgEBAICAT+gxHINBkxZGLX9d8Jl/+kxeZ/Ksb/Ts9bjOWvQ0CQkb8Oa9GTQEAgIBAQCAgE/m4IZI6MJEHP8vDjUm1zltsz4dteEKNyxP6YoF2aBw36wqPMkCLJ6T0EwkbCH5m5z4GBS2ZpncNhwRF4+xCGtYUpe2RmR3ZkXJoIIZ3hcLyy0dF+UKkTnPyA6FBKiX/h2VuY1wr67vkwH46/cMSiqw9EQJCRDwRQ3C4QEAgIBAQCAoFPGIFMkRHDPajuBf9Yr7HQNMLyUHDNATOu2kf03hZo1Rr6DIaRI5VlRD8IDYG6LWGE6trIwVC/EnxTAbqust+H4qoBJleEChM1xg0kxcFti/O04saMTwxxUMUd6swymSi9jIYgLygz2rbzdoLZN+baOMj2LTyQEyQDTCgP/q0ySbhUQ014aIocdnkaRPwC69drl/nd4JtO8Ls8kpIetgwy+RIMHq58PtLz6tceQkKg5Y/prw3uCJUqQIUQWHVLNaj3PTXA6a1wR5hSvS+Cf+p9goz8qfAK4QIBgYBAQCAgEPhbI5ApMvJ6IwS2s5GkLQGa5YAa07QX/I6imLQTcuqg12FH7zC3M8L1YxAVpVH2Q9dAKN0T9quvb4GG/pC3Plx5jzwLUgK/Wp7QXxaa9ew4qDcJbsRqaEiSoGMhqD0STk4Av2Yg71YifDV8YHiMY/NPugMb1sDq1dayahaUzQbfz4azkZCvKfx2Hs6fh6ghkKeJ9XxLDyj4D8hMfo2d7UAXAIczCB/r2AzstzLEw+h2sOgrREBUAAAgAElEQVSy/XbSVf1N2JoBbglXYMFEGDcDTqs0Uooe3sCRNTApEn6eDUduORDgwAjHFsCeewpJ73+ih21bbZPaVMEGuLITJo6BGesh3k7ggltHYN4kiPwZVh+B16pQzloDfX4MpmWg5RJkRAs5UScQEAgIBAQCAgGBgCMIZExGjHB6D8SnwMEBMNucpM7wEOYsB0sQnmerIGdxOKLSMMSfgIuWRg6MSApn+2V3eJ/AWveiYP5q2HMADh+WlUPQoxSU7QOH5PXy4yNwTZ6X4w2c2Ad79mRQ1kNZdwifrmy3PhLy6qD2FGXSRCknRw1vGH4ebk1OT0biZkCu2rZztDzbb8pVkbbmTIKDG+DQKTi7CPIEwJYLEBsLV67D2bFQqIs1j8fDWVCgs9XR/OoY+HpwBgte+XMzwM+VoPsBeeWfc6yPgzZVYLGthH9S9vUnELULVk6HbwtAk7W2xxI7F4oUN+WSkYhGzQAYcTQ9yXi4C5q1gKWH4U4cnFoLNf2h8UIrjlq9vNwHhVyhT0ZhdbVuttQZ4WIUbF0Jfb6FbE2UZNXSLPUzCeaGQvFGsPM4rBkCAZXhqCocsvS/OrQZDF4KsXfgxikYUhMKN4ZraS+SQrLp5CVEFILP5fljNJoJMqIBiqgSCAgEBAICAYGAQMAhBDImI9LiswIENIKe3WCQOflezzrgpoMBx6WsbzCzFviHqEyrhkJpH8gdZmMsUn6KNXBZxjxWRMBmDV+JuyuhyxxtXxUb0q3VBphWFWrNVi08JaK1DmK1wtBK1ySNw3Y4HA3Hjtkoh6CeH9SeoH39+EllrojEnZC/PFzTw+1fIHszeHEF5u0Cg+TbUgEqd4Kf2kO+vNBuOPzUGnLlhw7D4YcqoCsK+1QLTmmyyfvBPwguysyZbk38MDJifA5r1sNLyy76c4iI0NCOGWBlL5hzVoWx9Slk7ugdDC0H3aPs3yaN76SkEVsCxZ1sk5HksybzuV5HrfIerYAc/rBD5uNkfAyN88FceVJJIH4JZMsKi1T1adLewIAqkM3ZPhkx/AGdK0DkybQ7lQeShu8kREdB++LgboeMnB0BXsXhqGUDwAgrwsC/gyxniBFWNobac5XPRQoj3EDSni1Sdi8/OzoA8mWDIoKMyGERxwIBgYAKAX1ysrQMEH8CAYGAQOC9EHCIjEypAg2WK+XHz4VsYaZd/3fHIagsnFDnRkiEpj7QcqPy3rQzI8wLgbw1rSRmyJD0fgiSn0KrIPAqCXtVyf7SZJkPEk7B4F7Qd6BV5sgRULcgFKmnlD08Agr5wVftIU62gFfLtHueDL2KQH0VPrbuOTMI8leDocOgR23w/AraN4DytWD5SihXB24Z4NYkyBoCfxhB0hZ5lYOrejjWG7K30t4t1yIjd6dA9mD4aQSMGAF9v4esZWGo+bxbLShpRzMiLc5DPKBmNzN2I2DIMCWOqX4/wyDIG0r+mDmTL1s4nehvStxoWWfbapdWnwhhOttkZH1TcPsGfpf/Yr6Bln5Q6ReraWHiZsimgwkqbYzhFlTQQestaT0qDk6PhAFLoJybfTKScgqKu0K9ZYrbNU9Wh9khIy+gqR9887N17JKQN1vAzx1+seSnSYSW2aD8BFUSUgNMrAC+rTW75t1paD4AhpX7E8mI8Skx21axYsWKzJfVB7kp93PSnoaoffuYu7dvceuWg+X2H7zQ0palvOLpkwTepVh2JT4itMa33P/tCBcyYyv6EbvXFpXMsd5F0XnVZ5lss0K7rf3a5GO9Karzov6HCrLfje2rCXsY12sKu268RvPpJW2nU8HcVB57Cfs/g3quTK3Hl2X6sk/xv/eWbe2K8Hmt4RyQbSzaHpC4IhAQCAgElAhkTEaMMLOGDTLSGBINMCcURv6mFJx69g4aeUO3gxrXzFVL60HQaOVC6fYl2U68ud3uDlC4h30zmdSmBoh/oJQnbdloakZsDyvtyomZMGUbXI41mT5J5k/nt0HDFnBJWinrIbI0VJ1uXRTqr0Dv4XBH8YVtaju2Bsw0m7rdMWtGUn1GjLCkFUyVnP+NMCsEQuaYZG5tDZ+1MxGQPZ3AP8JqZpU2UBuakbipUPhDzLQSoJ43jJb7bLyFS78rd9pJgg55oMcR+Yje79j4AEK8YYJlQe2IGHtk5DU0ywYlhqreCyPMrglu1eG++Vc6aS/kdoKyY5RtpahplXTQZnv6wSSfhxZ94fl1CFaTESOcWQKTt5j8hySzsjreMMj8/3J7JwyfCY81Vgn2yIjkv5XNBYaeU45H0njUdIPqM8zPJwk65wbXsiYym9baAL9UAr82aTXWg2QY1wKinsP44D+RjKScYVCAG7ocRSgZGEigg6WEf1ZcPOqz7G+48NFfjiQ4W1b8suckV65cDpec2f3IlsWPpuvkHmiQtK0N2V2ccHJysOiCGClXrZrfCv318QTrJBnOOLu44upqv+jydmaP+vuPd9w/f4Q9W1azeObPjOj7A82/q0jAZ564OHtSdcotx3bX9ZeJDM5GVr/s5MwERrlyZscvWxb8mq6zvuuSYl8zlnoKZwYG4ObXmq3p5qG43XpiMGiOP+XMQALc/GjtgCD9sztcvX6T23fjiIuLI+7OLW5cu8fTs5FUKeBPoSJFKVasmEYpSpFCBfAP6GYdT+qRkedrw8nu4kOFseelr+n0f0k7aZ/TneCxVzMkI1fHlsM9V3t2ygUl7ifCX4d/++280PgeS9+hqBEICAQEAkoEHCIjc0Jsk5G4jdB5vg2S8BIaeEOvaGWn8rMVoSoyYoQZ1SH7NxAt8zVxmIzIhVuOMyIjKbCmG4w7oVpgA5Kztm91WLoCVpjL0l7glRPmSLvnZu1OwECr30XcNNA5Q43JSg2GRFJa9LP6kMjJyOtD0HORaQFs+B0q54dVkhYoBQYFwLfzTGOTdviL9bX2ZZmi9GnRjEjZtBf2hm0PwBEzrcBB2vJSZb+B0CxKMiL5vVT3hG9GWH2GPiYZeTQXXL6AC/a36eRTTwXalmYk5TcIcIaw1cpbpLO9ncApJ+yW/bjGxcAdlXP+izXg5wOL1E7vepjSGnY8A8MNDTKSAsO/BidnqDQUniRB7yBY9wpOTYDcLuBWGA5r7EbbIyO/DQJnd1it1kYmQafPIGdHK2F9Ewfn7qje7RcQ7qdtpnV1Cvy4A4yGP5uMxPBToI58EfsVi6SUC5NpGtqT+SefaezkGnk8vzbunk1Yo2Vemf4R/0fVGJ+cYPnUacycNZs5c+cyV1bmjG5EYTc/qveZpaiX2syZPZPpU6ayVVKfyv6S9nQmj64IPQ684t27d3bKG65PrIxOV46xKhmp4t7Gce5oNMdPnuZszHkuXLhgo/zGtHpZ0ZUcxrkU2UBSD9+ws0NeXF098fMvzhf5s+CWpwY9Jy9g1dYoTlx/it74jqf375kW4tJi3FLu/cFzC88yPuHE8qlMmzmL2XOUGM2dM5pGhd3wq96HWTLsUnGcM5uZ06cwdas83GMiW1vnwCOLL9lzKsmfn7cbTs4e+KYjPDnJ4edH8OgLisV74tbW5PDIgq+aSPp54+bkjIevUr5ENnPm8MMveLT5u85I/NwQ3F1ccXN1TiV+rjpXXDwasuL+ZaK2bWfXnn1ERUWxd2Y4+V39qDt+T+p5VNQ+9uzawbadql1BQxxzQnzwLDOCc2nfcYm8fPaCV2/M78PL7XTI4075sZd5Y35H3r5+yfMnz3kr1yRj4Oakirjn7qj4vnyzqyP53Usx/Hy6B65+AcS5QEAgIBDQRMAhMjLvWxtkpD4sXw4JelgzAvaq7OmNT6GuNwyQRZpSj0JacCk0IwaYUhkK91QSHLtk5DXM7Axtu8LAITB0qLIM6Q5f54DP6ynrLe0GdYSygVCqFmxXzWHfD5Cng3VhJ40/cRP4lYQY83fv/h/At5kplK6FnHhUUpkEAadnwA6ZP4ycjFw4ZPXDiO4DgQNNfUoL3G+8Ydw1E/FZ9B0EjbLu2ksYR7aBTj1hUGvImhsiekPLZtBR8mNxwIH9y352yMg7CFOREUlLUNkDespJ5kfUjBz8AZy+14hEpn555Od2NCOJW8DHCSI0/E+kRb2TGyx+LhemOtbDxIoQ0FtGvsxNbs6BrhtMC31NMiI9ttewewaEBkHpjjC6P0zrCUW+gq6T4KI8cIKsa3tkZEsLcMoLUWoSYyavbnXA3pSuTYRsAXBERvilrg03Tf9HqZqaP5uM6C8zurS7kowY7rLgu+y4uH9B66lr2bBhg7lsZGfMY4yYyIhHlqastyxOZZilPzTweF8/Ru1UAyW1NPLi/K8MalKez3NlwcMrB59XbMnYvfelPYD3/0s8Qf9Srdmq1eX7SyX5SA8KuZcm8rKScNgTmbQ/gny6z+kdndFgDNydWhWdrgITFbaMFulGXt04ws5de9kfFWVeAGt9bmXgNzrca83igcYuuf7tS16ngqvn8ujSeAaN4pJ8OokbaJZFWoirNDku+YhQ2gZZBqb8TD5Cj0LulI68rCAKykbyMwNx0etYt2UHu/ftl81rL/NbF8bNty7j96jmuX8PO7esY3uMkiwb4qJZt24LO3bvU2C0d35rCrv5yoiDRd5+9uzcwrrtMTyzYJWqXTHydGFtdB6NWSu940bprVf+JW5pia97DWZJdrx2/l4f+pFi7oWJ2CupEV8Rs/8If7zaQis/DYzVmLuHMPuhEQzxnNuziz379rEi4it0ft8zftdedu2N4ZH+CauaZMfF1Zsc+fKRT6Pk/7wTW/+GGwd2YBeXBAICgUwi4BAZWVAbQn6BW7es5XQkZG1kXTAmnYKyJWGrbDEvmdvU8oaf7IRbXdMYSsvNtMxmT6VGWhfc0pzskpFUVbuNmSfCpGqQJ8SklVCtvbi+HBZcsHEvcKibDTLyFWk7f5J/h8Wnw3AfanlBoxWqnWgj3L+nrLOQkYQ/YPVsOBYPhttQp4TVif/ONPApjekHW8qXUgmqTLGahMlHbtGMyK0srkSCXwY+I4W6K4mfXKYUd7ixiozoY6G0B4y8KGv5EcnI1hbg2VxJAGU9aR/aISPvVoHOCXofS3/rxZHg7ArT/0h/zVITOxmK14ELqh9UKcdMx86kLbpskRGLHMmG48QvUKo4NI6EePkiLK2R9cAeGVnVEJyKwDH1qlkPI78G12omfyOrNOtRUizUKg5T1e+9AZZ2hBUPzG3/dDJyjXHBcjKi5+b878nllpV8xYpTvLip+PvpcNZ9Qc/D0n+vmYxkbc5Gu2TkfzkZWZOyX+Yji4sXLTSYgeH2XCJ6r+HcnSf8d/L/kvhfdzi5ojcVPytGtyiNCBFWCO0cGbg9szpZvFp8GBnRvyDuaiyxsdZydnIIHrqqjDlprTNdv0rcC+2XKflAF/wzRUaqMOWuYjvcPFc9V8cF45GBeZZkvuXi7EyWputR/buoMLNFRrbyDz8Pak48n+bncmNHDwLcC/PjETWh0vMi7qoCo9izkwnx0FF1zEllfWwsV+Ne2CAor4lZP5PZ8xawcOFCc5nPiPr5cfWpTM+5ljrpcz5zZk5j+qbLipDslsm9jlnPzNnzWJAmZyHzR9Qnv6sPlXvOlclfyPw5M5k2fROX073HKjKSKtzIs5PLmDh+POPHj2NwaBHcfCvywxjp3FQmLjtpJTXSPW9PMvhrT/zqLeK+QfptmUGNLG7kbbqAM5diuXbjd25KvkTXfqVlbnfKDjnM76m+RTf5/cZ1rly+xVPp+yVpO+3zeOPj60cWnWSm50m2HH74+ndi62+RlPPMRZ0RK1izZo2qrOKX5p+jy9GW7WlaGQtS4lMgIBAQCFgRcIiMLKwLZSJg6VJrmd4OsoRZyYi00JpcGfK2l/ZfTH/SDnoVbxhzxdqh+iidZiQZuheEELNZkqW9REYKdbOzaLY0lH8aYJNkZlUKDjyDbd1gXpy1wZN9EJgFAv+Bxg+Cqd2BLjbISACcNi8Ek49AoWywKgEuR4JnUThq/5c4lU0c7Qse+aDlEDgvOUkaYW1LaLPRTFr0MK48VLQka0yBYSWh3lLrHORHWmTkYiRUGWvVfKhD+975FQZu0iY3qbI1NCPJh6GgJ8x7JOvdTEa6HZLVvedhdA9wa6g0cctQlB0ykrgBvJygu8bYzg0FJ1eYL9NYyfv6YzNUD4PzanMoI6yJgEV3rK1tkZGUR7BiNFQvCuV7Q2R/WDwSChaClsPgmA0iZI+MbAgHJ384pF6fpcDQEuAaYtW0WUcIUjSvH6rDtPPyWtNx/BrosEj2LvzpZOQ649PIiJEn+3pRytsFF11hmv96K1U7Ybi/mmb+3nzV+yAJqZvAFjLSgk3pFnHyOf2T1/cuc+HcXgYHZ9UkIyn7IyjX/yT/K78NI3Ezq/FZhz2KWkdP/vlfW2lbIhfZvT+QjDxfTF13J5ycXXBxsVekHW536tpQ7SUf6Iq/qweffRFE6dKl7ZaS/j646KoxLU6LjDiIQMopBgTo8O92kHSv5v1zHDh4hOhjxzh27CgrOn+B+xed+PXoMY5FH+Hg/iNcjd9Jh888qbfU6jWeEvMTgR5f0P+kmnk/Z3Fd91RzJvsYueDs5IR73cXa2kJjPCvalSGoTFnKlSuXVkrk88TZLSfFy1rrypUrS5mgrwmK2KQRft5I/Ip2lAkqQ1mZnHIl8uHp7EbO4kr5ZcsE8XVQBJvS+T5pkREDv/9cHp2uMNVbtKJVK3lpQcgX3ugqTEoNfpL6pAx/sLFdMdxd/Qmfvpu9u7YyJbwAuhx1mHNDhWPSfiLyeVBx0k1Nn5e0J5/6bN1wsZhpGe6zNDQnHkEjiElKr72RthOvjCmHR4Hu6b+n0oSKA4GAQEAgAA6TEc1oWg2t/g8SmDE/QZaaVmdg/TUI9obJdjJxp/MZSYD63hCxX/l4JDIiOW6rf+CUrWRnetjaBfy+gA3mJHSJJ6BOF1N44Pg9UOMbmHzIulCX3Z12uKcj+ATBIJnp16Bw8PwcjlkG8xqaZ4dWS6Gtv9XxPE2I7ODlTVg2GmqVgoqlIJss6eEfa6DeIGv44reHoXhuWPXYLCAZIvyh9VaZQNmhFhmRwgXL/9RkRH5N81jDZyRhOXjng/2W+Us3msmIlimUplw7lU/mg1sZuJmZNZEdMpJ8CPI7QUuNSFiHuoOTD5oL20e7oE44XNQI6fV0G4RHwsPH8Nhc4k9BkCtE7DLVJUiENAWGlDARnjqT4WUidC4B29/B5flQSAcu/nBQjqUZG3tkRNLYOWWFLeodR4nM+4NP8/RkzvgIetWBGXKNlrkvydyvSziceGidz+N4GBYEBSPgwWN4kiAjKrLn9955RvRWMpL4dDsdC3tRtPUKDi5shL9XIRqMGE/HwGz4N1wgy4fiKBmxDDCZrS38NMkIxv/m2X+pATRwe2otas34vxYBmfj8H84Oq0qjedNo5veBZOTNSkLdXQkYcNquyVjKyX4Uc/Wg0WqNl1TyI5PIiC43341YlkHEsl+Z9o8A3NRkRB/LujGjiRwzjgkTJzFpUgZlwg98k9WNPCG9mfDzBMaPGcPiEy9SzYyeLw3F1ycbfn7ZyZ7dD29pl93NC9/s2fHzy0YW7wD6HdxGx9xaZCSAAadUi2jesDLUHdeAAWkbQ5oPK+Uk/Yq54tFoNdooad2VQsywkuhytWeX+hXRam6nLiVmGCV1uWjvsCBtMhI3rSo635ZsSUfCkznY1R+PGjNToy+mDkUv+WNJPi9uePrlJo+fB84un9FwaVwq4Ui5sIxB/QcxdNgwhg1uTdmsbviHdE89Hzp4AH37TGLfI6UJWMpvQyjh5pRGRozxm+laqiSdtj/j3uwGlPi2Lxtuyp+RHsnh3aNYX47Lq+1gJS4JBAQCnyYCDpERyUxLi4xkDbVqQST49LdhqyzPhP4CfO0Ns2WmW2qYl0g+EDIzLWnhWMAHFlsW4OYbJDKSs61jpjvGlzCnCbi7qnbDjbC4kSlkac/xcCfdl7p6dLC9DRRUaWQkTUjEOHggWyxvbwveWcDjSzhuQyvyah8U0UG5TnA83pRnxJKBPekKdO8P9yzkwQAzasE3Mq2G9EsanhV6y301ZENWk5HXd+GGyh9BTUZenIIdv8uEqA+fw3eqaFrSQtjnO1UEKImM5Ia2O9QCMn8umT9V8oGFqnfAriQ7ZMT4EGq4QSUN87YVDcClNFyx4G7uJOEofN8IYtQaEfP1uAMwYzpMl5Vpw6GAE9ToY6rfKJlBGSFmDSyNNpHeVO2JF/xsxvzxaZgyV/kuWeZpj4xIz9HNBabINH2p90lBI9yhdKTSzNGYAD99D5NtmExKmC+coZzP9GkQWgCy14Cp02HWxvQ+M1KfH4OMSOu9d3G3eCAtWt5dYXqd7Lg4OeGSvRZjjz+WbUJ8RDJiAZp/Ykj+bx7fOsO2WYPoPmIrd99j8WSMW0CjBrO49XYrLT6UjCSupbGHkowkHJ7BwJET2Rhr/eIykRFvwm040JjISGZ8RlSakaQoBlf9hoqVq1GjVgghIcpSNcAPFxc/Aqoo66V2tWpUpVKFSnRa8Uc6nwde76B9Xhd0ap+RpN2ZICOJrG3soSQjCYeZMXAkEzfGWs2ozGTEO3y9tU569snRTAgPo0l4U5o1a6YqTanzlS/O7kWoFq6+1oxmTcNpEtaQiKU30JNM9IRwwpqE0zSdnGY0rfMVvs7uFKkWrupDktuU8CZhNIxYyo207yAtMmLk/szqVjLyags/Vv+OzotjU/tPJSMhc4lP4w9Gnty4xJ0XSRhTLjPumyzkabQ81VwrderHJhAeGkbjJuGEh6tKk8aENerNWsm2K+3vFbs6+eMq/U/6VeEf7UPpteUpRsmfxRjPwu98cC85kBMKtmcyxfMIGGifLKb1IQ4EAgKBTxUBh8iILQf2rPXtZ0pPOQHFvWF5OjW0GW4jzG8OA/eazZKA/RHgEwJXL8DsxXDJbD5zdQccuZ/xY3pyAlqWg7DBUN4D+qmSy+mvQ60AmBebsSypxcOr8DTtRyL9PfpE0yLz5i/g4QQ1Zyl3jy/vhz8s3+lSmNfj1h3r21IG9qam8MhRa+GBrJ+7i6FoZYixrjsw3IWqUshbVQ4My6hSyUgxmDDZlJhw/ErYPx/ad4Re/UHK4dKzLmQtbXL0HzIY6n4JBaqYzNgscuSf0kK+eTVZfpe3EFHApP25sBEW78JkV6yHHSvg/gfuIlr63tEOvh6eCU2YHTIibQWOLQdZw1XvazL0LARFVQ78ydegWT2IVrkNSFhMspMfxJaZlmVO0mfSDsjhoh0iWN5OOrZHRgzXoJwrhCujlErrq9Qs8Ir3PhnmNoNh0db/s9S+jLBqkrpX2flfaKaVmPiE69EbmD6gGeXzeeFbIpxRC2bT99tCeLl4kj+4MV2G/cLSPbH8Pq82HlkzMtOyzMOOZsTcJHlrCzydnHD2KUHLmad4KrfbSt5KC0+VM7XF0ddTpv3450v2dG/EhEvJIN3z0cmIgbtTKqNzLcEQWZiqP52MWGA0PuX4lijuKTR4BuKmVUOnq8pUuZ+J8Tmx527Z8RkxcHfOt2RzdkJXqi/Lp7ej5fjTpPrzfSAZMdydQmWdKyWGnLNqlGyRkZRTTO/Qho4R3enVbwADBw5MLQM6VSWPixMeAaH0HNCXPn1N9Zbr0ueA/n3o2fUHBq2VwhGncGp6B9p0jKB7r34MMMsZOKATVfO44OQRQGhPSdvQN62PNFkD+tOnZ1d+GLTWamJFxmTE+GgeITo3ykTaIiOWB5fMlV+q45enEcsV5MJy3bFP/fVfqJLFh4AShdDlrE2TGr7oSgzkZCIY7s6klk9+2mx5xrsb25nYL5KtkuM7es4P/xqPr4am+Vc61ptoJRAQCHxqCDhERmyF9s36vf2IPVLOhrx+sFm2oFYDrJctwJMvQQUf6LDT1OpFDPSoCWXrwy+bzYtetQDzeWIcTOsG4V0h6i4YX0F9r/RkRGp+ZwUULgjjjyh3j22ITq02vIOb52DrrzB2IHTpDsPGwLyNcHUPlMoF1SuCe0FYddcsyQCzh8IdCxlRdSA5vvuGW8mJ5XLiRQj5Glapdr2lhebnWWGV3AvfCA/OweIxEFYa/L+B8VtkeVoSIUGGv1ozYunT5qcB9Gm7bXBpPPgUgJ3SQl3a9V8KNQOhfnfYfMG+yZvNPjQuSJnV+wZDbw0/D43mqSDaCu0rtX+wBHx9YZnMzyUxGop6wgQpUpnl7xUMbQBrNYjvtUnQTrX4t9wmfTpCRiTTxfZSFDobhFIuzx4ZkbBfUg98G4DcmiK6N3h+A9dk/1fHhkKHtUqSLPWTcg3qtpP3qDr+y8jIXh7uiaCYzpsCFZszaNERDkwMp3aHSFafusPt48sY3roKRbJ6U3bEb9yb/3HJCPwTfdJrHt08xcYxjagQOovY/1FhkcFp8sVxtB5x2rQA/1PISArnhpTAza8Fm2W7zw6REbec1Oo7jZkzZ9opM4gML5beTMs8b8OtOXzrpyN3jZ/Y/9DycpnJiKs/bbc+NWk/km6xoUsQWd0+o+7sa1ZCIMPP+Hw7HQq44e7hnkpGZvX6Gk9dEdpteYTxA8lIyjnJlMiPFkqQUs200mlGZGOyHBqfHWV4JT/c8jdiyfWbLG7oT/Doi1bHd0McG8dMJOqRjS91qyCODq+En1t+Gi25zs3FDfEPHo01uIiBuI1jmBj1SMNPQ0VGkt/wJtmg0IwY78+gmi4LjddIPwZmMy2FZkQaiJHHe3tRykcyz7qHIeUlf1w9w/ErTzHqr7Lmp9706tVLs/SduIeHlika7rCwXk7cA3rza2SF1NC+m/f3pFiWAPoefsaxvgH4Vp3CDQOknJNM0jypOVMyB0vh1IAAPEqNzFyYdguG4lMgIBD4ZBBwiIzYSnqYtY79bNvPlkCWIpBhVEnpa/MxdP8KvvhBZf5jgNNzIDAbeBeCHotJl1gpPhqmz4eLcidkNTW13BgAABi6SURBVBlJgfObYP4B06Ls8gIo4g0Vu8BBdQ4GIP4g9IuARt9CYGHw8oLAb2HgNDh83bpjf3cTlP0Cxh0DwxuIrAiexWG5tMB9C+0bWX1o1G/V7xMhaxMlGdHfhfbVtTU3cdPBOwDOyExIHq+FXE5QKARmHTCHF1Z3JDvPNBmR3ft4D3yVDX6QclDI6g3PYE4bUxK+QrVg8TnldVnTTB0aHkDX6jDpTMa3JZ6DQCcoOUjpx5R2px4Wh0Lh5nAnGSRTvlEVoeIYJWbnJVOrStC1G3STlY7hkMfdmqwwTa7sICkaijiBKqearEUmDhNhaCA4lYQzNkzFJLPI0HzQfJXpfXx5CirmgzFnrf3oz0NQAWjTVTmfrh0hOA8EDLK2TXeUBD2LmLR3VnfidK0+jpmW8RUPH7wyLcyML4n5dSCNg3Khc9bxWZWxnJE0bokveZX0Z5hpyef0P5wZXJbvFlhCismv2Tg2PuDXH4dx6PU/TQ0+Bhl5u5owhZnWGzY2y4auosxJWSKUaT4j2rahJgd2T/xLVaZKlSp2S3BRX7sO7K8vziW8iDvuRdqzWWLAhhTuTK2GzskZN/8mzNu3lj6VcqHLVpIWkw5oa0mNCezvVhxd9jr0/aFUamjfi28vMaFSFlzzNWPt3Z2ZMNN6y+owpZnWm43NyKaryKRblpV0KkhpPiPaKJke2+vLS2lbwhsnp2yEr5V2W/TEji2HZ55mrJNiXRsTODYsGB/J5Kr1Wu7JulC8Ga8vs7RtCbydnMgWvpZUSbFjKeeZh2brTOGpE44NI9jHGfcirVmbTpCRJwtqo3P7gjqtvuWrvCHMvK9XkBH9+eGU9Ahk+HmJGJrJSK05MjMtPdfmN+Zzb2ecdTkoXCwf2XSSI7+ObybcwJB8gK7+buQoHUbbdu1ol1ba8G1xT3TB48wbGu84/3M1/HSF6LD9Mb9b8oy8e8a9+695e3Y05f2+ov9xiSHrefd0H92LuuFZfTp3Dckc7lEIj/LjuW4LKwVw4kQgIBD4VBHImIxIeT+qwBdhMGyYtfT+HrxCIFUba0bv7QWYOhu2HYSYszC0EviGoQw3qIG0RCbCA6BMV7itMAOwNn53DToFgrMTBEc64Dsi+Tp4Qc9tsCYSateAUduVC89Hh6FBYXByAf8y0KILTDJrZVLOQykvKFkfJq6B25YQYZYh6SFKipDUDKJlvg3GZzC8Erj5QcRg+LICNr+Ir0taBlkQgKQb0KMlrDdnHr9/EH6ZAdsOw7lDEF4Q8nWSRTCTxmKAQzusTu+W4dn61CIj8buh/yIlKVLcnwLRUyAgrymnho1HxLWVEOgDTlkgUrYgVsjK5Ink6zCtHQzdqa3FkjQN44ZC52YQ2gAahEL7XjBqpcY7kgTbR0P976F+PeizDF7JWRVwbiY0aggNtUo47NZYlUvhmCePgG6tTWMIbQp9hsEBdYJER+auh43joG9naBgKDRpAeHsYPArOa5jAJd2G0W3g+wZQryksO68kginnoG0jG/NpCMN3awzKADsmw6Bu0CgUQkOhYx8T2VXBlXrzx/IZSRVmfMa+yYOZvPoItxJecWvfLCKXxsiSIn5EMmL8b168lNtkmbB4sz6c3O20gNHASqqyY8rlWqgPx9N3YUOQrDphKfXkDuxvTVmui/U9odA2mMiIO98t0XgxpaGlOrB/gM+IbEjSYcrdzYybtpuzOyfQslwtunaphM6tCMFlc+Hi5MJn1Yaw447Gi5oqx8jDTW0opMtO7TnXOC/LM5J45ieqlO/MmsuZcWBPYGk9uQP7W/ZH+KMr1pcTsg0bzGZa7t8tQROl5PtEjQujmLcLPgULkdM1O212mOYgaXHa+eso0HIeq/qXx88tFzVGH+ax5uI6mftR4wgr5o2LT0EK5XQle5sdpnfX+Jzt7fzRFWjJvFX9Ke/nRq4aozmsEGTgj839+D64KNmlbPe6XHxVux2DZ+7lVpKUB6aK2WfEyP3ZtfD6rD27UrXeZjJSbQb30/5BjTxf15aAgPLUad6FIT8vYN2uI5y9dp8E6Qs85Th9i3lQaqQycaP0rbmrw2d4VJ2KyfIuhVvLmlO18zaeGFVJDw13mFrNA2ddFvz8fPB0k8iOM87Ozjh7f8eix+/Y0S4nHrVmK9YJqldKnAoEBAICAQeiaRng5woQ+qsSrfi54N8svWbk+SUY+q0pA7mzDrrK/EEUEgxwYx/0bQQV68PsQxqLR8UNYHwBkdVBVwZiLZYCqjaW07f7wN8FpDFU/BFi5aZNlkbS52vYNApK+0OH5fDcItcIDx8qF3aW217FwvBOMEZFbizXJS/J9X3B3wOc/WCjjb6vjIEs9Uj9gXxwGCInwTWZCYYk7+kpaFjARMI8isJqlelWWp/yg1cwrRO07wFDhsOIEdYyuDPUaQHDLXXD4R/fQfUQmKOKsmR4CfvmQqPKUP9HOKRhuiTvVjp+cRyq54AyKgdqdbvMnkumcLH2tjUzK1C0/2gIvD8ZUecZkbQfp5jUMIi8ni44e+YhqH4Xxq8+Q3za4tJMRnwyyjNimZ5tn5GUQz0o3eOQYnEv7TKfHVKSUiP/j0VA5j8/hmbk9WEmtmvDgFSfhCRiJ1XBxy2AQWdSMD47yKQBU9h/NxHDswvsWreew7e0CcDHJSNvuRM1gy7V/fH0yE/VHovYNrpKqs/ILzEHGRKcDV3+75h0yhQ9Sw3cq9ORVPFzI0/YMu4a1HlGDBikBX6qmZYr2Qp8RWBgoKkUz42nTiua1msOT2xHmwEmf4uk2ElU8XEjYNAZUozPODhpAFP23yXR8IwLu9ax/vAtGamV1PGvuLiyP98X98HZxZfSESu4fGUKVXRWMsK7eC4tb01BVyec3ArSeNEVDV8YI68urqT/98XxcXbBt3QEKy5fYUoVnZWM8I74S8tpXdAVJyc3CjZexBWN77OUM8OoVCqU3jN3cPlZ2kufuut0c0Yd8hfrwu4XpxhU0p1crTZx9+gMxqy+xKFR1fgqfIFNk2D1syDlhH0yUm0a1gjP5meTLgO7gbsL2xDSrCeRs1ezM/o8N+Nf8seC7/DLU5OJ51+yurEnHqG/mvyB0g1CVAgEBAICARMCGWtGjHB0A9xULZKTn8Jzzd0haUEB0yNg6kGT+YgCbAMcXATjR8HUlXBFblqlaKh9Iu2Ur9xgZxffcts7GBcGo/Y76McgaeEt99r51N+EBavhkfx3wkb7d3GwdCxsvq3d4PJ0aD3TpK1JeGG7/3sboc9EuKxyqNaW+uG1UmSlRVNhVCSsjIKntlQhNrpKOAMb1An1bLQV1f/5CLw/GdHIwG6Gw/DyBlELh9Gyoj/Zy4/hYto7aCIj7l7hpuzUGcCnTzjNsDJelBpwhMfJZjMqSx83Z9LhxzX8n//336QY/pe3j69xcHYbShYJZ7VW+vAM+jJd/icpD+ZRO+u3zLmXhLJHhwQoG0kma3PCKaLTUaTDNh4bjcTv7E/lvDqcvQpTu98KLpgSsCjvM59lnoxUTZdnJOlRDFun9yGsVC50upyUbjmWbdelHRalA7vx+XEm1PVH556f6t1nsefqc6uvBa84NqoSeb7swu6n0jetmoyYB5y0iw653CkdsSAtFPHysY0ooCtOP4W6Qz5dIy9j5hBeRIeuSAe2PTZijN9J/8p50Tl7Ubh2P1ZcSND4fjdwf0NbSgWGMyHqfmrENsPdqSYysv01Dw9PJjzgM+ou+J2TYyrj55KFgPBxbLn0TEVgwXB/A21LBRI+IYr70rtquMvUVDKyndcPDzM5PIDP6i7g95NjqOznQpaAcMZtuYSCb8inZOs48Qa/tvwc9+whzIq9yC/VfHF29iO411biFL9JBpJfPyf+7lXORe9h/eJpRA7sSuuGIdTot4s3yRIZcSeg22YuyhJrxsaeZ17j7HgoyIhlMFKukwq4f9bBfrjj5ESSpLWB4Trjy+vwa71FGcXMIk58CgQEAgIBMwIZkxEBlUBAICAQsIPA+5OR8wz/Wke2ihFMsJm/YgJjxoxX5LcY1TQAN4+GrLThS2MaajJ72vumJrtzskS/cvKk0Vq5mtLA4+iptK9SlOwebnhkK0CZsMFsuKGxZW1n/mmXDFcZV0aHtT8nPJusz0RuizRJkPSImC1TiKjmj7uzN1+2XcENufLj9XW2jAyluLczunzV6bvuGlpwJO2LIJ+rDt98RShSxH4pkNMTZ10lJsv9LZIuML5SNpyds1Cs/lDWXHwhc7jWc3VMOWU0Lf0joqe2omQ2F5yd3cn5ZSiTzph3soxveP7Cwir1XBwVhGepEUrn5sTNtMzmkT7poXsBuqVLxpPEo5gtTImohr+7M95ftmWFEiSubxlJaHFvnHX5qN53Hdc0QJJvQhlu/Ex5nQefB5XAz8WVHKVbMuHAAwy85tLSzpTLIWk2dPgWKkNIk/YM23TbSriUgvi5vA6Pz4Mo4eeCa47StJxwIDUc/OtLS+lcLkdqmFydbyHKhDSh/bBN3LZo5WWvQdqh/jmXt4yjxde+uOWqxqgjz0zk6u0Vfu0YiI+zG/nqTuKUhZimnGNYSTfzuyj5jWQl3xflqNnwH/RbdRV98jF6fy7NRTtSnK7KFLOZVtoITD40kWXRZW/DNvm7KG/CO57G3ebW77GcWPEDX7nrCB531YqRoq04EQgIBAQCJgQ+mIy8fOyAluLfAG151K5/g+GIIQgE/jYIvDcZSfmNwSV06HIWIyiD7ODy7OGBBbPh4lGfpX+RpvCvfFDJVxbTsUYg+bxdcHJyxa9EGMM2XLVp5vLuxgb6Vv4MV+cslBp4JB0hSdrZnlxueQmbtJUdO3bYKdtZElESnS6YsVeVq+KU33fy6767it1t/bV5tKpUigI+Ljj7NmGVyhkj6f4hZnapTkDd6TaSl6ZwZlAA7uocFMZnXD95gquPZWPQv+H5k6e8svCY5Css7liDwHzeqbloXP1KEDZsA1flPFP+0N7dYEPfynzm6kyWUgM5okFITM2NPFvVCN/UXBpl6TTvFE9kw5DaGF5cYtOEH6hbMhfubkGMuqRqYO7X+GwVjXydcHLxo2yneZxKL4hLmybwQ92S5HJ3I2jUJe0Fu/ExUZFNKJffE2cnTwp/P5JdcRYgLJ295Oy0+vi7uVL4hz3mSj1XV41i1Kw17D93m+dJcqaU6kxEV393mz4j7uUnpEbHMgtLk3l+eCC6rHZMJI1PWNnYL/W5ODk541m8I5vkjqVKgeJMICAQEAikIvBhZEQPY4OhSCicU5lx/Vn4XpoHDfpCRpEVFf3rYXwIhI2U5fxQNBAnAgGBwPsi8P5kJIax1T8neEi0LKlhxqNI2DGAb2sPZJet/EUZi/j3bWF8wJofalGv02iWHLzFa9UaUnPgyXFsH9GPhVfSb1frr6xl1JCJ7JDnAdEUYuT5wcl07zaGHWmJkTQbmipTTjKiRnm+azeIuUceaC+kJbcMo60JGLi5/ie6D1vPTe31vJ3OjTxY8wO16nVi9JKD3HIMJOK2j6DfwitKvxF1L0lXWNh/FDvVC351O0lX8jCel7amRxJXFvZn1M64DN9tw+uHxNsWxLtz42lQ7R9M2HnTjpYtiWtb1nNaHWgl3bjNFfrrbIwcyvSoeJX5moH7R1eyZHMMz9PNzcij6CX8Mm27LEGjugMjL44vYcLUhayPusSj9K+k+gZxLhAQCAgEHHBgtwPS6yhTgrX8YXDblv+Ixv33tkCr1tBnMIwcqSwj+kFoCNRtCSNU10YOhvqV4JsK0HWVhmBbVQaYXBEqTEyfa0G6JSkObtsgU0+Pw/SNNsLF2upP1AsEPiEE3puMfEIYiakKBAQCAgGBgEBAIKCNwPtrRlJMUbZ8Q+DMFmg/20FHce1xpNUm7YScOuh1OK3KsQMjXD8GUVEaZT90DYTSPWG/+voWaOgPeevDFVlyQHmnt1ZBk95wV+EgKG8hjgUCny4Cgox8us9ezFwgIBAQCAgEBAIfisB7k5FbcyG7L0y5IuniYXUb6HfQdkQoRwf6+8/wZXd4HwuMe1EwfzXsOQCHD8vKIehRCsr2gUPyevnxEbj2zPYo76yE8k2w72Ro+3ZxRSDwt0VAkJG/7aMVExMICAQEAgIBgcCfjsB7kZGU6xCSHb6bb01EZ3wIrUrDxN8yMWYjRK+ByzLmsSICNmuE+727ErrMcTy5n2IUBphWFWrNVpElI5xe52D+CiMc6AFl+7/nGBQDEicCgb8PAoKM/H2epZiJQEAgIBAQCAgE/moEMk1GjC9hSDkI6GJKePj0NiSY/UVeHICv/WHoPitJsTshI8wLgbw1rf4hQ4YofUgsPiWtgsCrJOx9YlciCadgcC/oO9Aqc+QIqFsQitRTyh4eAYX84Kv2EOeIE+UbiCgI7XaoSI39IYmrAoG/NQKCjPytH6+YnEBAICAQEAgIBP5UBDJHRhJhfgMo1hJumf0njvwIuYNh6wPTOG/9CoW8IWQw/O5AuP6l9SBotJK83L5EuigluztA4R4aSRTV8Bgg/oFSnhQYX1Mzor7XgfPrY0BXGq45Ql4ckCeaCAT+0xEQZOQ//QmK8QsEBAICAYGAQOBfh4DjZOQVTKkHlXrDPZkj96n+4FkL5KHEb62FQB/wLAARU+CiHW3GilAVGTHCjOqQ/RuIlsWNd5iMaGGZERlJgTXdYNyJjDUe+hgIcILI61odiTqBwKeHgCAjn94zFzMWCAgEBAICAYHAx0LAITLyMgYi6sPw7aSL0f7bIPCqDU9VMclfnof2pcDZCXT+0H2F9pBXh6nIiAGmVIbCPZVaELtk5DXM7Axtu8LAITB0qLIM6Q5f54DP6ynrLe0GdYSygVCqFmx/qD3OtNp3EKaDxuvSasSBQOCTRkCQkU/68YvJCwQEAgIBgYBA4IMQsEtGDM9h7UQYNhV+t5G19twQbTKSOqpkODQPoh7ZHuOaxlBabqalh8jSUGqk0tTKLhmRMuPaynOSCJOqQZ4QaNGPdJmMry+HBRdsjy/dlWSIyA215qe7IioEAp8kAoKMfJKPXUxaICAQEAgIBAQCHwUBu2Tk5S2Is5EM0NK7XTJiaWTnM51mJBm6F4SQeUqTKYmMFOqm1JbYEWu6ZIBN7cC3FBx4Btu6wbw4611P9kFgFgj8B1y2kWPE2tp8lAwdskPY2nRXRIVA4JNEQJCRT/Kxi0kLBAQCAgGBgEDgoyBgl4w40sOHkpF0PiMJUN8bIvYre5fIiH9EJsiIHrZ2Ab8vYMM9k6zEE1Cniyk0b/weqPENTD6UuWSNxvtQyRmGxCjHJ84EAp8qAoKMfKpPXsxbICAQEAgIBAQCH47Av5yMLPlO6TOSfAgK+MDix8rJSWQkZ9v0PivKVqYzKfzwnCbg7grdD8laGGFxI2g+AHqOhzuOakNkIu7PBl0BOJYsqxSHAoFPGAFBRj7hhy+mLhAQCAgEBAICgQ9E4F9LRowwvzkM3Gs1ydofAT4hcPUCzF4Ml8wJEK/ugCP3M57tkxPQshyEDYbyHtDvpPIe/XWoFQDzYpX1Dp29gi6FoPoMpGjB4k8gIBAABBkRr4FAQCAgEBAICAQEAu+LwL+WjAB6Wb6O5EtQwQc67DRN50UM9KgJZevDL5vhqSyksHrCiXEwrRuEd4Wou2B8BfW90pMR6b47K6BwQRh/ROkkr5apODfC7s7g3xhuy8asaCNOBAKfIAKCjHyCD11MWSAgEBAICAQEAh8JgQ8mI5bQvk9UoX0zOz7jY+j+FXzxAzyWyzLA6TkQmA28C0GPxfBCfh2Ij4bp8+GiWYuS2reajKTA+U0w/4BJq3F5ARTxhopd4OAdq2bG1rgvToPA7+HSe5h22ZIp6gUCfwcEBBn5OzxFMQeBgEBAICAQEAj8axD4YDKilfQws1ORyER4AJTpCrdt+GK8uwadAk15S4IjHfAdeQ7feUHPbbAmEmrXgFHbQZ4U/tFhaFAYnFzAvwy06AKTzFqZtDnoYc8oaDMG4oVtVhos4kAgYEFAkBELEuJTICAQEAgIBAQCAoHMIvDBZCS6F3hUgtuZXagb4MY+6NsIKtaH2YcyJhjGFxBZHXRlIDYDU6m3+8DfBZx1UPFHiJVlc1eA9Bo2jYLS/tBhOTxXyX16BvbeUNwhTgQCAgEZAoKMyMAQhwIBgYBAQCAgEBAIZAqBDyYjh/pD2ERTuFyHejbAwUUwfhRMXQlX5KZVDggwJsDKDZChtdQ7GBcGo/Y7GLrXmLGplgPDE00EAp8cAoKMfHKPXExYICAQEAgIBAQCHw0Bu2TEssgQn9aIQQILgYV4B7TfgY/2rSQECQQEAgIBgYBAQCDwySAgyIiT9sJKLDgFLuIdyNw78Ml8a4qJCgQEAgIBgYBAQCDw0RDQJCMfTboQJBAQCAgEBAICAYGAQEAgIBAQCAgEbCAgyIgNYES1QEAgIBAQCAgEBAICAYGAQEAg8Oci8P8BT2ZqupPZwYMAAAAASUVORK5CYII=;" vertex="1" parent="1">
          <mxGeometry x="-260" y="20" width="803" height="213" as="geometry" />
        </mxCell>
      </root>
    </mxGraphModel>
  </diagram>
</mxfile>
